<?xml version="1.0" standalone="no"?>
<!DOCTYPE svg PUBLIC "-//W3C//DTD SVG 20010904//EN"
 "http://www.w3.org/TR/2001/REC-SVG-20010904/DTD/svg10.dtd">
<svg version="1.0" xmlns="http://www.w3.org/2000/svg"
 width="804.000000pt" height="1280.000000pt" viewBox="0 0 804.000000 1280.000000"
 preserveAspectRatio="xMidYMid meet">
<metadata>
Created by potrace 1.16, written by Peter Selinger 2001-2019
</metadata>
<g transform="translate(0.000000,1280.000000) scale(0.100000,-0.100000)"
fill="#000000" stroke="none">
<path d="M0 12600 l0 -51 83 1 c73 1 358 -4 1012 -15 116 -2 298 -5 405 -7
l195 -3 3 24 c5 32 -5 68 -21 74 -8 3 -67 -1 -133 -9 -77 -9 -122 -10 -128 -4
-16 16 -56 12 -56 -6 0 -11 -4 -14 -12 -7 -15 11 -173 10 -205 -1 -18 -7 -23
-5 -23 9 0 14 -3 15 -15 5 -12 -10 -18 -10 -29 -1 -9 8 -16 8 -20 2 -4 -5 -25
-8 -49 -5 -23 2 -80 6 -125 9 -75 3 -83 2 -77 -13 4 -12 0 -10 -15 6 -11 12
-25 22 -30 22 -21 0 -39 -13 -33 -24 3 -6 -3 -3 -14 7 -11 9 -22 14 -25 11 -8
-8 -128 -13 -128 -5 0 3 -19 7 -43 8 -23 1 -61 4 -84 6 -24 3 -43 0 -43 -4 0
-12 -47 -11 -52 0 -1 5 -78 12 -170 16 l-168 6 0 -51z"/>
<path d="M1910 12602 c-45 -45 -38 -74 20 -79 14 -1 165 -4 335 -7 171 -3 407
-8 525 -11 118 -3 321 -7 450 -10 129 -3 283 -7 342 -10 99 -5 108 -4 118 14
25 47 0 100 -34 72 -8 -7 -16 -8 -19 -4 -3 4 -42 7 -86 5 -45 -2 -79 -8 -76
-12 3 -5 -15 -9 -40 -8 -25 0 -45 4 -45 9 0 5 -10 5 -22 0 -15 -5 -30 -4 -44
6 -19 12 -24 12 -38 -2 -9 -9 -16 -12 -16 -6 0 6 -30 9 -75 8 -42 -1 -75 -6
-75 -12 0 -5 -4 -4 -9 3 -8 14 -83 19 -311 23 -69 2 -130 7 -137 11 -6 5 -14
5 -18 -2 -3 -6 -11 -8 -16 -4 -10 6 -302 16 -452 14 -87 -1 -193 11 -232 27
-8 3 -28 -8 -45 -25z"/>
<path d="M3943 12526 c-23 -21 -26 -28 -16 -43 6 -10 17 -16 25 -14 23 6 313
4 553 -3 127 -4 278 -7 338 -7 95 1 110 -1 129 -19 24 -22 36 -24 56 -11 10 6
-2 13 -37 25 -27 9 -55 16 -62 16 -6 0 -17 8 -24 17 -10 14 -34 17 -136 20
-153 4 -308 12 -374 18 -67 7 -68 7 -163 -1 -63 -5 -89 -4 -109 7 -19 10 -27
11 -30 2 -3 -8 -11 -7 -31 3 -41 21 -87 17 -119 -10z"/>
<path d="M5406 12513 c-110 -10 -154 -17 -167 -29 -10 -9 -23 -13 -28 -9 -6 3
-11 2 -11 -3 0 -5 -12 -7 -27 -4 -25 5 -27 4 -14 -11 9 -11 10 -17 2 -17 -13
0 -14 -24 -2 -48 8 -15 26 -120 38 -217 2 -16 8 -68 14 -115 5 -47 12 -92 16
-100 7 -18 15 -85 14 -124 0 -16 4 -37 10 -48 14 -26 15 -136 2 -149 -11 -11
-133 -18 -133 -8 0 4 -13 12 -30 18 -16 5 -30 15 -30 20 0 6 -5 11 -11 11 -15
0 -59 51 -59 69 0 7 -6 11 -15 7 -8 -3 -14 -2 -14 2 4 23 -5 32 -41 42 -22 6
-40 15 -40 20 0 6 -18 10 -40 10 -28 0 -40 4 -40 14 0 9 -7 12 -20 9 -12 -3
-27 4 -42 19 -13 14 -32 28 -43 33 l-20 8 20 5 c11 2 27 10 35 17 11 9 30 10
70 5 30 -4 59 -5 63 -3 4 3 14 -1 22 -7 12 -10 19 -10 32 1 13 11 17 11 20 2
6 -18 23 -16 23 2 0 8 6 15 13 15 15 0 17 39 2 41 -5 1 8 5 30 8 l40 6 -54 52
-54 52 -1 110 c-1 69 -5 110 -11 108 -5 -2 -12 -14 -13 -28 -2 -13 -10 -28
-18 -32 -8 -4 -14 -15 -14 -23 0 -9 -11 -30 -25 -49 -19 -24 -22 -34 -13 -38
22 -8 -60 -20 -90 -13 -51 12 -87 13 -106 4 -12 -7 -22 -6 -29 1 -8 8 -6 11 6
11 9 0 17 5 17 10 0 14 -47 13 -52 -2 -3 -8 -17 -9 -57 -1 -39 8 -51 7 -48 -1
6 -16 -77 -14 -117 2 -23 10 -26 15 -16 27 7 8 21 15 31 15 11 0 19 4 19 9 0
16 -40 23 -95 16 -32 -4 -56 -2 -59 4 -7 11 -76 3 -91 -10 -18 -17 -35 -9 -35
16 0 21 5 25 30 25 17 0 30 -4 30 -10 0 -5 7 -10 15 -10 10 0 14 10 13 34 l-1
34 -54 0 c-29 0 -56 -5 -59 -9 -3 -5 -22 -9 -43 -9 -21 0 -41 -3 -44 -7 -4 -3
-27 -7 -52 -8 -24 0 -47 -4 -51 -8 -4 -4 -18 -7 -30 -7 -13 0 -27 -7 -32 -16
-5 -9 -29 -20 -53 -24 -37 -7 -52 -5 -93 15 -42 21 -50 22 -63 10 -8 -8 -23
-15 -33 -15 -10 0 -22 -4 -25 -10 -3 -5 -13 -10 -21 -10 -8 0 -29 -13 -46 -29
-34 -32 -127 -85 -135 -77 -8 7 -26 -14 -40 -46 -8 -17 -20 -28 -33 -28 -12 0
-20 -7 -20 -17 0 -15 -1 -15 -18 0 -10 10 -22 14 -25 10 -12 -11 -8 -21 11
-27 14 -4 14 -5 -3 -4 -46 1 -55 -3 -55 -22 0 -10 -9 -24 -21 -31 -17 -8 -20
-17 -15 -40 5 -25 1 -31 -24 -44 -17 -9 -30 -22 -30 -29 0 -8 -6 -16 -13 -19
-8 -3 -26 -30 -42 -61 -16 -31 -32 -56 -36 -56 -4 0 -9 -10 -11 -22 -2 -15
-10 -23 -23 -23 -11 0 -19 -5 -18 -11 1 -6 -15 -28 -37 -49 -47 -46 -74 -43
-68 9 4 34 -4 39 -42 24 -8 -4 -35 -9 -58 -11 -26 -3 -52 -14 -63 -25 -37 -41
-86 -72 -124 -80 -30 -6 -41 -14 -46 -32 -3 -14 -11 -24 -18 -22 -7 1 -19 -5
-28 -14 -9 -9 -25 -13 -36 -10 -12 3 -27 0 -34 -5 -17 -15 -121 -15 -135 -1
-15 15 -28 15 -28 1 0 -16 -26 -39 -60 -51 -17 -5 -28 -13 -25 -16 6 -6 -63
-41 -82 -42 -7 0 -17 -9 -23 -20 -6 -11 -17 -20 -24 -20 -41 0 -145 -84 -189
-153 -10 -15 -23 -26 -30 -25 -7 1 -32 -17 -57 -41 -33 -31 -45 -51 -45 -72
-1 -16 3 -29 8 -29 4 0 5 -4 2 -10 -12 -19 -25 -10 -25 18 -1 25 -2 26 -15 8
-11 -14 -11 -22 -2 -37 10 -16 9 -21 -2 -29 -13 -7 -13 -11 0 -26 11 -13 11
-18 2 -21 -7 -3 -13 -11 -13 -20 0 -11 -7 -13 -30 -8 -26 6 -29 4 -23 -11 4
-11 3 -15 -4 -11 -12 8 -43 -34 -43 -58 0 -8 5 -15 10 -15 6 0 10 5 10 10 0
21 19 8 29 -20 6 -20 7 -30 0 -30 -6 0 -7 -5 -4 -10 6 -10 -20 -7 -62 5 -7 2
-15 0 -18 -5 -10 -17 -45 -11 -45 7 0 9 -3 13 -8 9 -4 -4 -7 -20 -7 -34 0 -24
-4 -27 -34 -29 -22 -1 -42 -10 -57 -26 l-23 -25 21 -27 c20 -26 20 -27 2 -43
-11 -10 -31 -23 -46 -29 -15 -7 -33 -21 -39 -32 -10 -15 -16 -17 -29 -8 -10 6
-25 7 -36 2 -11 -4 -29 -7 -42 -6 -13 2 -34 -5 -47 -13 -13 -9 -37 -16 -54
-16 -16 0 -31 -6 -35 -15 -3 -9 0 -15 8 -15 8 0 17 -12 20 -26 7 -25 -13 -60
-48 -85 -14 -10 3 -29 26 -29 14 0 18 5 14 15 -3 9 0 15 9 15 19 0 19 -5 -1
-35 -9 -13 -13 -29 -9 -35 3 -5 1 -10 -4 -10 -6 0 -11 7 -11 15 0 22 -33 18
-48 -5 -11 -18 -10 -20 13 -20 28 0 31 -6 11 -25 -7 -8 -23 -11 -35 -8 -11 3
-28 2 -37 -1 -13 -5 -14 -9 -4 -21 10 -13 7 -16 -19 -21 -17 -4 -31 -10 -31
-14 0 -4 -12 -19 -27 -34 -23 -23 -25 -30 -15 -47 15 -23 16 -64 2 -89 -7 -13
-7 -21 0 -25 15 -9 12 -25 -5 -25 -18 0 -18 -5 -5 -31 13 -24 33 -25 26 -1 -3
9 -2 23 3 31 8 12 13 12 35 -3 31 -20 34 -46 6 -53 -25 -7 -25 -19 0 -35 24
-15 28 -68 5 -68 -8 0 -15 9 -15 20 0 11 -4 20 -10 20 -5 0 -7 7 -4 15 4 8 1
15 -6 15 -7 0 -10 7 -6 15 7 19 -8 19 -24 0 -7 -9 -9 -22 -5 -32 5 -10 7 -24
6 -30 -1 -7 8 -13 20 -13 14 0 19 -5 16 -14 -3 -7 0 -19 6 -25 9 -9 8 -14 -3
-21 -8 -6 -20 -8 -27 -5 -7 2 -15 0 -18 -5 -10 -15 -25 -12 -32 8 -7 18 -43
51 -55 52 -15 0 -8 -29 9 -38 22 -13 28 -82 8 -82 -8 0 -15 -6 -15 -13 0 -23
-33 -45 -75 -51 -53 -6 -85 -16 -85 -27 0 -5 -11 -9 -25 -9 -14 0 -34 -9 -45
-20 -17 -17 -29 -20 -62 -15 -34 5 -40 4 -35 -9 8 -20 -2 -48 -14 -41 -5 3
-11 -4 -14 -17 -11 -49 -26 -144 -26 -165 1 -12 -6 -34 -14 -50 -8 -15 -15
-35 -15 -44 0 -9 -11 -22 -25 -29 -14 -7 -25 -19 -25 -25 0 -7 -15 -43 -33
-81 -19 -38 -39 -85 -45 -104 -24 -80 -53 -259 -51 -315 2 -33 0 -66 -5 -74
-5 -7 -10 -61 -12 -120 -7 -204 -12 -296 -19 -324 -5 -17 -3 -33 4 -40 6 -6
11 -28 11 -48 0 -21 5 -41 10 -44 6 -4 8 -10 5 -15 -3 -5 2 -39 12 -75 16 -60
19 -66 40 -60 19 4 26 -1 40 -29 9 -19 20 -33 25 -30 4 3 8 -4 8 -15 0 -11 4
-22 9 -25 5 -3 7 -15 4 -27 -4 -12 3 -32 15 -48 11 -16 25 -47 31 -69 7 -23
16 -44 21 -47 6 -3 10 -15 10 -25 0 -11 13 -43 28 -72 25 -46 28 -62 26 -125
-1 -40 2 -73 7 -73 5 0 9 -8 9 -18 0 -10 5 -23 10 -28 8 -8 21 -125 21 -196 0
-10 4 -18 10 -18 5 0 9 5 9 10 0 6 5 10 10 10 6 0 10 -9 10 -19 0 -11 5 -23
10 -26 14 -9 12 -56 -5 -85 -19 -33 -19 -60 0 -60 8 0 15 -8 16 -17 0 -10 2
-34 5 -53 7 -52 7 -53 -2 -74 -4 -12 -4 -17 2 -13 8 5 11 -27 5 -54 -1 -6 -69
-27 -156 -49 -48 -12 -59 -19 -74 -47 -11 -22 -16 -250 -5 -289 4 -16 21 -26
69 -39 79 -21 111 -57 126 -142 6 -32 19 -92 30 -135 10 -42 19 -89 19 -105
l-1 -28 -16 35 c-9 19 -17 42 -19 50 -5 35 -24 69 -44 75 -22 7 -52 -10 -48
-29 1 -6 -5 -27 -14 -47 -12 -27 -14 -48 -8 -80 5 -27 4 -49 -2 -56 -5 -7 -7
-17 -3 -24 4 -6 1 -15 -6 -20 -12 -8 -12 -11 1 -19 13 -9 13 -10 0 -10 -21 0
-20 -108 1 -121 10 -6 11 -11 3 -16 -12 -9 -26 -56 -14 -48 4 3 11 -2 14 -10
3 -8 11 -14 17 -13 6 2 14 -3 17 -11 3 -10 0 -12 -13 -8 -9 4 -21 5 -26 2 -11
-7 21 -45 38 -45 20 0 15 -16 -10 -33 -18 -13 -19 -16 -5 -16 10 -1 20 -12 24
-26 3 -14 12 -25 20 -25 8 0 11 6 8 15 -4 9 0 15 10 15 12 0 14 -7 9 -30 -4
-22 -2 -30 9 -30 13 0 19 28 42 190 1 9 5 20 8 26 4 5 10 35 13 65 10 93 16
119 24 119 10 0 33 -70 51 -150 25 -116 73 -275 102 -340 11 -25 43 -80 71
-123 49 -74 109 -127 202 -175 53 -27 224 -76 358 -102 141 -28 179 -31 610
-55 38 -2 71 -6 75 -9 3 -3 11 -1 18 5 14 12 54 -4 54 -21 0 -6 -9 -5 -20 2
-17 11 -22 10 -29 -1 -6 -9 -32 -14 -80 -15 -39 -1 -73 -5 -77 -9 -9 -9 42
-20 55 -12 6 3 11 0 11 -7 0 -12 -52 -17 -85 -8 -32 8 -81 3 -92 -10 -10 -13
-14 -13 -30 3 -25 22 -33 22 -33 0 0 -15 -2 -16 -10 -3 -9 13 -11 13 -20 0 -5
-8 -17 -15 -27 -16 -53 -3 -54 -4 -48 -25 5 -15 4 -19 -4 -15 -17 11 -25 -22
-12 -50 8 -19 16 -24 32 -19 12 4 27 1 37 -8 27 -23 61 -27 71 -9 9 15 11 15
31 -3 18 -16 23 -17 30 -5 7 12 13 13 27 3 10 -6 17 -15 17 -20 -1 -4 7 -17
17 -27 16 -17 19 -17 19 -3 0 15 35 34 54 29 4 -2 15 3 24 10 13 11 15 10 9
-5 -4 -10 -3 -16 2 -13 5 3 21 -4 36 -16 23 -18 31 -19 47 -9 17 10 23 9 40
-5 16 -16 21 -16 28 -4 7 12 12 12 22 2 9 -9 9 -12 0 -12 -7 0 -12 -5 -12 -11
0 -7 9 -9 22 -6 12 4 29 1 37 -6 11 -9 15 -9 18 1 12 34 63 -10 63 -55 0 -7 7
-13 15 -13 8 0 15 5 15 10 0 6 -4 10 -10 10 -5 0 -10 10 -10 22 0 22 1 22 27
-5 23 -23 26 -29 13 -37 -12 -8 -11 -13 8 -39 30 -41 34 -104 8 -109 -16 -3
-18 0 -12 22 3 14 2 26 -3 26 -5 0 -12 8 -14 18 -4 16 -5 16 -6 -1 -1 -12 -7
-17 -19 -15 -11 2 -18 -1 -18 -7 1 -5 4 -9 9 -7 13 4 7 -25 -8 -38 -12 -10
-18 -8 -32 6 -17 17 -18 17 -21 -11 -3 -20 -6 -24 -12 -15 -7 11 -11 10 -25
-3 -9 -9 -14 -21 -10 -26 3 -5 1 -12 -4 -15 -5 -3 -18 9 -29 26 -18 28 -22 30
-28 14 -4 -11 -2 -21 6 -26 18 -11 -9 -70 -32 -70 -9 0 -23 -7 -32 -15 -8 -8
-21 -15 -28 -15 -7 0 -19 -4 -27 -9 -12 -8 -12 -12 -2 -25 16 -19 19 -19 -49
-1 -30 8 -56 15 -57 15 -2 0 -3 -8 -3 -18 0 -10 -5 -23 -11 -29 -8 -8 -8 -13
0 -17 6 -4 11 -15 11 -24 0 -11 -8 -6 -21 16 -23 35 -36 40 -45 17 -4 -8 -10
-12 -15 -9 -5 3 -19 -6 -32 -20 -21 -23 -25 -24 -39 -10 -11 11 -18 12 -22 5
-4 -6 -2 -11 3 -11 6 0 11 -5 11 -11 0 -5 -4 -8 -9 -4 -16 9 -24 -15 -10 -31
12 -15 6 -29 -14 -29 -7 0 -13 -10 -15 -22 -2 -13 -10 -23 -17 -23 -7 0 -16
-10 -18 -22 -4 -21 -4 -21 -6 3 0 14 -8 34 -16 45 -14 18 -14 18 -15 -8 0 -20
-4 -26 -15 -22 -11 4 -15 -1 -15 -17 0 -17 -3 -20 -9 -11 -10 16 -62 5 -55
-12 2 -6 -2 -20 -10 -31 -15 -20 -15 -20 -16 2 0 16 -4 21 -15 16 -9 -3 -14
-11 -12 -17 3 -6 -2 -19 -11 -28 -12 -15 -13 -18 -1 -18 10 -1 8 -5 -5 -15
-25 -19 -36 -19 -36 1 0 8 -4 12 -10 9 -17 -10 13 -45 40 -45 22 -1 23 -2 7
-11 -9 -6 -15 -15 -11 -20 9 -15 -16 -38 -34 -32 -9 3 -22 12 -29 20 -6 8 -16
12 -22 8 -16 -9 -13 -51 5 -69 14 -15 14 -16 -3 -17 -51 -3 -60 -11 -20 -18
44 -7 54 -24 17 -30 -23 -3 -24 -4 -5 -12 l20 -8 -20 0 c-16 -1 -17 -3 -6 -10
11 -7 7 -13 -18 -25 -17 -9 -31 -19 -31 -22 0 -2 8 -1 18 4 22 12 44 4 35 -11
-12 -20 -14 -47 -2 -47 5 0 8 -4 4 -10 -3 -5 -12 -7 -20 -3 -8 3 -15 1 -15 -5
0 -6 19 -13 41 -17 27 -5 37 -10 29 -15 -7 -5 -19 -6 -26 -3 -16 6 -57 -34
-49 -48 4 -5 12 -9 18 -8 7 1 23 -2 36 -8 l25 -10 -27 -7 c-17 -4 -27 -13 -27
-25 0 -11 -3 -28 -7 -38 -7 -17 -6 -17 11 -1 21 22 36 23 36 3 0 -8 -7 -15
-15 -15 -8 0 -15 -5 -15 -11 0 -5 -4 -7 -10 -4 -5 3 -10 -4 -10 -16 0 -20 3
-21 48 -14 45 6 46 6 25 -10 -12 -8 -38 -16 -58 -17 -40 -1 -46 -13 -12 -22
32 -8 52 -52 33 -71 -7 -8 -16 -11 -20 -8 -3 4 -6 1 -6 -5 0 -6 12 -12 27 -14
26 -3 26 -4 9 -21 -10 -10 -25 -16 -32 -13 -8 3 -14 1 -14 -4 0 -6 20 -10 45
-10 25 0 45 -4 45 -10 0 -5 -9 -10 -20 -10 -11 0 -20 -4 -20 -10 0 -5 8 -10
18 -10 11 0 25 -14 35 -36 13 -25 14 -35 5 -32 -7 3 -20 -2 -28 -10 -11 -12
-12 -16 -2 -20 6 -2 12 -13 12 -24 0 -15 -5 -18 -21 -13 -13 4 -27 1 -39 -10
-21 -19 -45 -11 -36 11 6 16 -10 19 -19 4 -8 -12 25 -61 36 -54 10 6 10 -28
-1 -71 -7 -29 -8 -29 -9 9 -1 24 -8 44 -19 52 -26 20 -33 17 -26 -12 6 -23 4
-25 -15 -19 -20 6 -21 4 -15 -36 5 -30 4 -40 -4 -35 -6 4 -9 13 -5 21 3 10 -2
15 -16 15 -12 0 -21 -5 -21 -11 0 -8 -12 -10 -36 -6 l-36 6 17 -25 c18 -27 12
-64 -10 -64 -7 0 -15 -5 -17 -11 -6 -19 -48 0 -48 22 0 10 -6 19 -13 19 -21 0
-14 -43 8 -57 19 -12 18 -12 -7 -13 -18 0 -28 5 -28 15 0 8 -4 15 -10 15 -13
0 -13 -37 -1 -44 10 -7 9 -31 -2 -42 -4 -4 -7 -2 -7 4 0 7 -5 12 -12 12 -9 0
-9 -3 0 -12 17 -17 15 -38 -4 -38 -13 0 -14 -3 -4 -15 7 -8 9 -23 6 -32 -6
-15 -9 -15 -16 -3 -5 8 -7 17 -4 21 2 4 -2 9 -10 12 -7 3 -16 20 -20 38 -3 18
-14 38 -24 45 -10 7 -31 42 -46 77 -28 67 -34 71 -116 82 -8 1 -31 5 -50 9
-23 5 -30 4 -21 -2 7 -5 10 -15 6 -22 -5 -8 -13 -6 -29 9 -32 30 -70 41 -142
41 -90 0 -153 -16 -246 -61 -10 -5 -25 -9 -33 -9 -9 0 -18 -6 -21 -14 -3 -8
-20 -17 -37 -20 -18 -3 -49 -22 -70 -41 -21 -19 -53 -42 -70 -51 -18 -9 -42
-26 -54 -37 l-23 -20 0 -1139 0 -1138 4020 0 4020 0 0 1090 0 1090 -26 11
c-15 5 -35 7 -44 4 -10 -3 -21 -1 -25 5 -3 5 -16 8 -29 4 -14 -3 -27 1 -35 10
-16 19 -37 21 -44 4 -3 -8 -6 -6 -6 5 -1 14 -10 18 -43 18 -146 0 -168 1 -163
9 3 4 -2 11 -10 14 -9 3 -18 -1 -21 -9 -8 -20 -34 -19 -34 0 0 10 -10 15 -32
15 -18 1 -46 7 -63 15 l-30 15 40 -5 c22 -2 74 -7 115 -10 96 -8 222 -25 235
-33 5 -3 33 -7 61 -8 29 -1 69 -7 91 -13 21 -6 44 -11 51 -11 9 0 12 58 12
259 l0 259 -37 -9 c-21 -5 -74 -11 -118 -14 -124 -7 -179 -16 -195 -30 -27
-24 -129 -27 -114 -4 3 5 -1 9 -9 9 -8 0 -18 -7 -21 -16 -3 -9 -12 -14 -20
-11 -7 3 -30 -5 -49 -19 -29 -19 -49 -24 -98 -24 -58 0 -98 -7 -176 -31 -46
-14 -161 -15 -175 -1 -9 9 -9 12 0 12 7 0 12 7 12 15 0 31 -50 27 -217 -16
-157 -42 -167 -46 -180 -74 -47 -98 -83 -140 -83 -95 0 12 4 19 9 16 5 -3 12
2 15 11 4 9 1 20 -6 24 -7 4 -9 11 -6 15 4 4 3 15 -2 24 -7 13 -6 20 6 24 11
4 14 14 9 35 -3 16 -2 32 3 35 5 3 8 30 7 61 -1 30 2 56 7 57 5 2 11 27 15 56
4 38 3 52 -7 52 -10 0 -10 3 0 15 7 9 14 34 17 57 2 23 8 47 15 55 6 7 8 16 4
20 -3 3 -6 0 -6 -7 0 -7 -3 -10 -6 -7 -4 4 -1 14 6 22 11 13 10 18 -5 29 -16
12 -16 13 -1 19 9 4 16 11 16 17 0 6 -4 8 -10 5 -14 -9 -12 9 2 23 10 10 10
17 1 31 -12 20 -7 61 8 61 17 0 9 17 -13 28 -13 6 -17 11 -10 11 22 2 13 43
-16 71 -16 15 -32 36 -36 46 -7 17 -9 17 -24 -9 -9 -15 -23 -27 -30 -27 -16 0
-42 -24 -42 -40 0 -6 -11 -26 -25 -44 -14 -18 -25 -40 -25 -48 0 -9 -12 -23
-26 -33 -19 -12 -23 -19 -14 -25 7 -4 8 -9 3 -11 -22 -9 -83 -180 -116 -326
-7 -28 -16 -55 -20 -59 -4 -4 -7 -19 -7 -33 -1 -31 -23 -117 -33 -127 -4 -4
-7 -16 -7 -26 0 -11 -12 -44 -26 -74 -14 -31 -27 -66 -28 -80 0 -13 -4 -24 -8
-24 -5 0 -11 0 -15 0 -5 0 -9 10 -9 22 -1 12 -7 24 -13 26 -6 2 -11 29 -11 66
0 35 -5 77 -11 95 -7 20 -8 36 -2 44 22 28 33 78 21 97 -9 15 -9 24 2 45 8 15
13 52 13 90 -1 43 3 68 12 75 10 8 11 18 5 36 -10 26 -3 57 11 48 5 -3 17 0
26 5 10 6 12 11 6 11 -22 0 -14 20 7 20 27 0 38 29 17 45 -22 16 -21 25 1 25
27 0 33 10 21 32 -6 11 -7 23 -3 26 4 4 9 1 11 -5 3 -7 10 -13 16 -13 8 0 7 4
-1 12 -16 16 -15 65 1 71 10 4 10 6 0 6 -7 1 -13 6 -13 11 0 6 6 10 13 10 6 0
17 12 24 26 9 20 9 26 -2 30 -8 3 -19 3 -25 -1 -5 -3 -10 -2 -10 4 0 5 10 11
22 13 29 4 34 24 8 31 -20 5 -29 27 -10 27 6 0 10 -4 10 -9 0 -5 13 -9 30 -9
16 1 27 4 25 8 -3 4 2 13 10 20 7 6 11 18 8 26 -3 8 0 14 6 14 7 0 2 10 -9 23
-14 14 -20 31 -18 48 4 22 1 25 -20 21 -26 -5 -86 43 -75 61 3 5 9 4 13 -3 8
-14 40 -7 40 8 0 9 -52 24 -68 19 -4 -1 -6 -10 -5 -19 2 -10 -2 -18 -7 -18 -6
0 -10 8 -10 18 0 9 -12 28 -26 41 -14 13 -23 30 -20 38 4 10 1 13 -12 9 -10
-4 -46 5 -80 19 -34 14 -70 25 -81 25 -24 0 -32 11 -21 30 7 11 13 11 34 -3
29 -19 56 -22 56 -6 0 6 -7 8 -16 5 -10 -4 -23 2 -34 14 -14 16 -25 19 -47 14
-26 -7 -27 -6 -13 11 16 20 16 20 -33 0 -12 -5 -43 43 -49 77 -2 13 -7 15 -18
7 -11 -8 -12 -12 -2 -16 21 -8 13 -23 -12 -23 -24 0 -41 23 -30 41 3 5 -1 12
-10 15 -8 3 -18 19 -21 35 -4 16 -11 26 -16 23 -6 -4 -6 -11 1 -19 8 -9 8 -15
0 -20 -13 -8 -30 3 -30 20 0 14 -55 30 -92 27 -12 0 -18 6 -18 19 0 13 -7 19
-22 20 -17 1 -19 2 -5 6 22 6 22 16 -3 38 -19 17 -21 17 -40 0 -18 -16 -20
-16 -35 -1 -9 9 -25 16 -36 16 -11 0 -22 7 -25 15 -4 8 -15 15 -25 15 -15 0
-17 5 -12 30 4 24 2 30 -12 30 -12 0 -15 -5 -11 -16 4 -9 1 -23 -5 -30 -9 -11
-8 -14 2 -14 8 0 20 -9 26 -19 11 -18 8 -31 -7 -31 -11 0 -37 60 -51 114 -10
41 -14 46 -24 32 -15 -20 -25 -21 -25 -1 0 8 5 15 10 15 6 0 10 9 10 21 0 26
24 20 28 -7 7 -43 13 -50 23 -31 8 13 7 23 -3 34 -11 13 -11 17 0 21 10 3 10
8 -3 22 -11 12 -13 20 -6 25 6 3 11 -1 11 -9 0 -8 8 -20 18 -25 9 -6 11 -11 5
-11 -18 0 -16 -30 2 -30 8 0 15 6 15 14 0 8 6 17 13 19 10 4 10 6 0 6 -7 1
-13 11 -13 24 0 21 1 21 24 -5 31 -37 40 -35 32 7 -7 38 8 49 19 14 10 -30 40
-20 40 14 -1 27 9 35 20 17 4 -6 12 -7 18 -3 7 4 39 8 72 9 85 3 87 3 81 12
-3 5 9 6 26 4 25 -4 30 -2 25 11 -5 13 -2 15 18 7 14 -5 32 -7 41 -3 9 3 20 0
24 -7 6 -10 19 -11 51 -4 33 7 44 14 49 32 3 13 7 23 10 23 11 -1 50 12 50 16
0 2 -11 14 -25 27 -31 29 -32 38 -2 35 12 -1 29 1 37 4 8 3 38 8 65 10 94 8
310 47 366 66 31 11 83 32 115 48 72 34 164 124 164 158 0 16 5 23 13 19 15
-5 53 43 63 80 3 14 11 26 16 26 6 0 7 11 4 25 -5 19 -2 25 9 25 13 0 14 4 4
21 -9 17 -8 20 3 17 14 -5 60 61 52 74 -3 5 -1 8 4 8 10 0 55 106 55 129 0 9
5 23 13 31 22 26 35 70 21 70 -6 0 -4 5 6 11 14 8 17 18 11 41 -5 26 -4 30 10
25 11 -5 16 -1 16 12 0 11 -6 22 -12 24 -8 3 -6 6 5 6 10 1 17 9 17 21 0 11 4
20 10 20 5 0 19 18 30 40 11 22 18 40 15 40 -4 0 2 12 12 28 11 15 20 38 21
51 0 13 5 27 11 30 5 4 13 20 17 36 4 17 10 35 15 40 4 6 9 22 11 35 2 14 16
38 31 54 15 16 27 33 27 38 0 5 4 7 9 4 15 -10 71 6 71 20 0 9 10 11 35 7 36
-6 51 11 18 20 -14 4 -13 5 3 6 28 1 38 27 16 37 -9 4 -21 6 -25 5 -5 -1 -5 4
-2 10 4 6 16 8 27 6 15 -4 18 -1 13 13 -3 10 -1 21 5 25 6 3 8 10 5 15 -3 4
-5 42 -6 85 -1 60 -5 78 -17 83 -9 3 -18 0 -20 -7 -3 -9 -7 -9 -18 0 -7 6 -21
9 -29 5 -9 -3 -15 0 -15 10 0 9 9 18 20 21 23 6 17 23 -8 23 -10 0 -22 8 -29
18 -7 11 -24 19 -42 20 -17 0 -40 10 -53 21 -12 12 -31 21 -43 21 -12 0 -48 9
-81 20 -32 11 -67 20 -77 20 -11 0 -51 9 -90 20 -40 12 -90 25 -112 31 -22 6
-69 19 -105 29 -36 11 -84 22 -107 26 -24 3 -45 10 -49 15 -3 5 -19 9 -36 9
-36 0 -108 38 -108 57 0 8 12 13 30 13 17 0 30 3 30 8 0 10 -43 37 -53 34 -5
-1 -6 6 -2 17 4 14 0 20 -17 25 -18 5 -20 8 -9 15 11 7 10 11 -5 20 -17 9 -17
12 -4 21 8 6 23 8 33 6 9 -2 17 1 17 7 -1 20 -28 49 -39 42 -19 -11 -33 5 -19
22 11 13 9 18 -9 30 -17 11 -20 21 -16 47 l5 33 -82 -1 c-45 -1 -87 2 -93 6
-14 9 -5 11 41 8 50 -3 38 35 -15 46 -25 5 -31 2 -36 -15 -7 -26 -36 -39 -48
-20 -6 10 -9 10 -9 2 0 -18 -16 -16 -39 3 -15 13 -17 23 -10 46 7 26 6 29 -14
28 -50 -4 -88 0 -82 10 3 6 1 10 -4 10 -6 0 -11 -7 -11 -16 0 -12 -5 -14 -17
-8 -10 4 -28 7 -40 7 -15 -1 -23 5 -23 15 0 14 -1 14 -12 -1 -14 -18 -33 -11
-33 13 0 10 -7 13 -20 11 -11 -3 -32 -5 -48 -5 -17 -1 -25 -6 -23 -13 7 -17
-14 -22 -47 -10 -38 13 -60 3 -53 -25 l6 -23 -12 23 c-8 17 -19 22 -42 21 -17
-1 -61 8 -98 20 -51 17 -71 20 -87 12 -28 -15 -38 -14 -44 8 -3 13 -12 18 -32
16 -25 -3 -61 -25 -40 -25 4 0 0 -9 -10 -20 -16 -17 -20 -18 -38 -5 -27 19
-47 19 -47 0 0 -22 -18 -18 -25 5 -3 11 -13 20 -20 20 -8 0 -19 9 -25 21 -9
16 -14 18 -26 8 -8 -6 -14 -20 -14 -31 0 -18 -1 -19 -17 -2 -13 13 -14 19 -5
22 12 4 18 32 6 32 -3 0 -19 -7 -34 -17 -26 -15 -29 -15 -45 0 -22 23 -41 21
-59 -5 -12 -16 -16 -18 -16 -7 0 11 -10 16 -30 16 -19 0 -26 -3 -18 -8 7 -4 9
-11 6 -15 -4 -3 -19 3 -34 15 -30 24 -64 14 -64 -19 0 -11 -4 -20 -10 -20 -5
0 -10 7 -10 16 0 11 -6 13 -19 9 -15 -4 -20 0 -23 17 -4 33 -33 30 -33 -4 1
-21 -2 -24 -12 -16 -9 7 -17 7 -27 -1 -11 -9 -20 -9 -34 -2 -22 12 -33 5 -25
-15 3 -8 0 -14 -6 -14 -6 0 -11 7 -11 16 0 11 -6 14 -20 9 -20 -6 -28 9 -10
20 6 3 10 14 10 23 -1 16 -2 16 -14 0 -7 -10 -23 -18 -35 -18 -12 0 -19 -4
-16 -10 6 -10 -28 -15 -70 -10 -16 2 -17 0 -6 -14 8 -9 10 -20 6 -24 -4 -4
-10 -1 -12 6 -3 6 -11 12 -18 12 -7 0 -16 6 -19 13 -3 6 -3 1 1 -13 3 -14 13
-30 21 -36 10 -7 11 -13 5 -17 -6 -4 -13 -1 -16 7 -10 25 -55 28 -77 6 -11
-11 -20 -24 -20 -29 0 -5 -7 -12 -16 -15 -24 -9 -54 -7 -54 4 0 6 13 10 30 10
21 0 28 4 24 14 -3 8 -13 17 -22 19 -12 3 -11 5 5 6 24 1 39 16 24 25 -5 4
-12 2 -16 -4 -3 -5 -18 -7 -32 -4 -22 6 -25 4 -20 -10 6 -15 2 -17 -26 -12
-23 4 -27 4 -12 -3 17 -7 15 -9 -15 -13 l-35 -5 38 -1 c46 -2 50 -22 3 -22
-18 0 -39 -7 -47 -16 -11 -13 -9 -14 16 -8 21 5 26 4 20 -6 -5 -9 -23 -11 -63
-6 -35 4 -59 2 -68 -5 -11 -9 -18 -8 -29 1 -8 6 -19 9 -25 5 -5 -3 -13 1 -16
9 -8 20 -24 21 -24 1 0 -8 -4 -15 -10 -15 -13 0 -13 21 0 54 5 15 6 26 0 26
-5 0 -14 -16 -22 -35 l-12 -36 -18 23 c-17 21 -19 22 -29 6 -5 -10 -22 -18
-36 -18 -14 0 -32 -8 -39 -17 -16 -23 -24 -14 -13 15 6 15 17 22 34 22 15 0
25 6 25 15 0 8 -6 12 -14 9 -8 -3 -17 -1 -21 5 -10 18 -25 12 -25 -9 0 -12 -7
-20 -16 -20 -11 0 -15 6 -11 20 4 17 2 19 -20 13 -18 -4 -24 -2 -19 6 4 6 1
11 -8 11 -8 0 -20 -8 -25 -17 -6 -10 -11 -13 -11 -7 0 6 -18 16 -41 22 -33 8
-39 8 -35 -3 3 -8 0 -16 -7 -19 -9 -5 -9 -7 1 -12 16 -7 6 -24 -15 -24 -9 0
-13 6 -10 15 9 22 -12 29 -41 14 -35 -18 -43 -30 -31 -45 6 -8 4 -14 -7 -18
-23 -9 -24 -8 -24 12 -1 32 -33 59 -68 57 -18 -1 -32 2 -32 6 0 4 -10 10 -22
12 -13 2 0 3 27 1 28 -2 44 -1 38 2 -20 9 -15 24 8 24 18 0 19 2 9 15 -14 16
-48 11 -63 -9 -6 -7 -7 -4 -3 7 4 13 0 17 -18 17 -31 0 -56 10 -56 21 0 4 8 5
18 2 15 -6 15 -5 4 10 -13 15 -16 14 -37 -10 -21 -25 -23 -26 -39 -10 -12 12
-23 14 -34 8 -22 -11 -42 -4 -42 15 0 8 -4 14 -10 14 -5 0 -10 -7 -10 -17 0
-9 -2 -14 -6 -11 -3 3 -21 -2 -41 -12 -19 -9 -47 -15 -62 -12 -14 3 -20 7 -13
9 6 3 12 12 12 20 0 12 -7 14 -29 10 -23 -5 -30 -2 -39 19 -13 26 -28 31 -35
12 -4 -10 -7 -10 -18 0 -7 6 -20 12 -28 12 -12 0 -11 -3 2 -18 16 -17 16 -19
0 -19 -10 -1 -52 11 -95 24 -73 25 -137 26 -123 3 4 -6 -14 -9 -44 -7 -28 1
-51 7 -51 13 0 6 -18 10 -46 8 -25 -1 -43 0 -40 3 9 10 -33 35 -45 27 -8 -4
-7 -9 2 -15 7 -4 -68 -7 -168 -6 -107 1 -181 6 -180 11 1 6 -6 12 -17 14 -11
2 -16 0 -12 -7 4 -6 0 -11 -8 -11 -9 0 -16 7 -16 15 0 8 -7 15 -16 15 -9 0
-14 -6 -11 -12 3 -9 -7 -13 -29 -14 -24 0 -34 5 -38 19 -3 14 -10 17 -26 12
-14 -5 -28 -1 -42 11 -18 18 -20 18 -29 1 -12 -21 -39 -23 -39 -2 0 8 -7 15
-15 15 -8 0 -12 -6 -9 -14 4 -9 -6 -21 -26 -31 -37 -19 -46 -15 -30 14 15 29
-10 29 -28 0 -7 -11 -19 -18 -27 -15 -7 2 -33 -11 -57 -29 -24 -19 -50 -35
-59 -35 -19 0 -42 -24 -32 -33 3 -4 -3 -7 -14 -7 -11 0 -28 -11 -37 -25 -9
-14 -22 -25 -29 -25 -7 0 -32 -9 -55 -20 -22 -11 -46 -20 -52 -20 -5 0 -10 -7
-10 -15 0 -9 -7 -18 -15 -21 -8 -4 -15 -10 -15 -16 0 -5 5 -6 12 -2 6 4 9 3 7
-2 -3 -5 -11 -21 -19 -36 -7 -16 -18 -28 -24 -28 -6 0 -23 -12 -38 -25 -32
-27 -38 -58 -10 -53 9 2 16 11 14 21 -2 10 2 15 10 12 17 -7 18 -45 1 -45 -7
0 -12 -6 -11 -12 2 -7 -5 -12 -14 -12 -10 1 -18 -5 -18 -12 0 -16 36 -11 82
12 32 16 52 18 43 4 -3 -5 -15 -10 -26 -10 -10 0 -19 -4 -19 -10 0 -5 5 -10
10 -10 6 0 10 -4 10 -8 0 -4 -16 -8 -35 -9 -20 -1 -43 -7 -51 -14 -17 -14 -73
-25 -194 -39 -41 -4 -110 -13 -154 -19 -43 -6 -83 -8 -88 -5 -14 9 1 203 19
237 7 15 13 33 11 40 -1 6 2 30 6 52 4 22 10 57 12 78 2 20 8 46 14 56 5 11
10 33 10 48 0 16 4 33 9 39 12 12 51 128 51 152 0 20 35 92 49 101 11 8 29 97
48 246 8 66 18 127 22 135 5 8 22 16 40 18 34 4 43 22 11 22 -16 0 -20 7 -20
33 0 53 10 73 41 84 16 6 29 7 29 2 0 -5 -8 -9 -17 -10 -11 0 -13 -3 -5 -6 6
-2 12 -11 12 -20 0 -8 6 -13 12 -10 7 2 12 11 11 18 -2 8 11 23 27 33 17 9 28
20 26 24 -2 4 17 8 42 8 79 3 82 4 82 18 0 8 -6 16 -12 19 -7 3 -3 4 10 4 16
-1 22 -7 22 -24 0 -30 17 -30 23 0 3 16 4 13 4 -8 0 -16 3 -40 7 -52 4 -13 3
-23 -2 -23 -12 0 -22 -35 -13 -47 13 -21 51 -34 69 -24 15 9 15 10 1 11 -14 0
-15 5 -6 40 6 22 14 40 19 40 4 0 10 16 14 35 3 20 12 35 20 35 8 0 14 5 14
11 0 7 9 9 21 6 14 -4 19 -2 15 8 -7 19 30 48 53 42 15 -3 21 1 24 17 4 18 4
18 6 -4 1 -27 44 -80 64 -80 8 0 9 3 1 8 -6 4 -16 26 -21 50 -10 38 -9 43 5
37 8 -3 19 0 23 7 6 9 11 10 19 2 8 -8 7 -16 -4 -27 -20 -20 -21 -33 -1 -17 8
7 26 10 40 8 26 -5 35 6 13 15 -7 3 -2 6 12 7 14 1 19 4 13 7 -7 2 -13 9 -13
14 0 12 49 0 75 -17 22 -16 55 -19 55 -5 0 5 -7 11 -15 15 -8 3 -15 10 -15 16
0 16 32 11 46 -7 13 -17 13 -17 14 0 0 9 -4 17 -10 17 -5 0 -10 7 -10 15 0 8
6 15 13 15 8 0 8 3 -2 9 -11 7 -4 11 25 17 21 4 44 14 51 23 11 14 12 13 13
-6 0 -13 6 -23 13 -23 8 0 7 -4 -3 -10 -11 -7 1 -10 42 -9 44 2 57 6 61 19 3
10 21 22 43 28 22 5 31 10 22 11 -25 1 -23 21 2 21 22 0 28 26 8 33 -8 2 -9 8
-4 13 5 5 11 4 13 -3 5 -15 33 -17 33 -3 0 6 13 10 29 10 24 0 28 -3 24 -20
-3 -11 -9 -20 -14 -20 -5 0 -9 -7 -9 -15 0 -8 5 -15 10 -15 6 0 10 4 10 10 0
5 16 17 35 26 28 13 38 14 50 4 12 -10 15 -10 15 4 0 8 11 18 25 22 16 4 25
13 25 25 0 10 5 19 10 19 6 0 10 -9 10 -20 0 -25 20 -26 27 -1 5 19 53 36 63
23 11 -14 52 -13 75 2 13 9 31 16 40 16 8 0 15 7 15 15 0 8 5 15 10 15 6 0 10
7 10 15 0 21 20 19 21 -2 0 -15 2 -15 9 2 7 17 9 17 9 3 1 -22 21 -24 21 -3 0
8 5 15 10 15 6 0 10 -6 10 -14 0 -8 -4 -18 -10 -21 -5 -3 -10 -15 -10 -26 0
-10 5 -19 10 -19 6 0 10 8 10 18 0 25 31 52 61 53 13 0 18 3 12 6 -21 8 -15
25 6 18 25 -8 36 11 19 32 -9 12 -9 15 0 9 7 -4 12 -2 12 6 1 8 6 6 15 -6 12
-16 17 -17 30 -6 13 11 13 15 3 21 -9 6 -9 9 -1 9 6 0 14 8 18 19 4 15 13 18
51 14 41 -3 45 -1 39 16 -5 16 -2 18 16 14 12 -4 25 0 30 8 6 11 12 11 27 3
12 -8 24 -9 36 -2 11 6 21 6 30 -1 9 -8 22 -8 40 -1 20 7 26 6 26 -4 0 -8 6
-17 13 -20 10 -5 10 -7 0 -12 -7 -3 -13 -12 -13 -19 0 -8 -7 -11 -21 -8 -20 6
-20 6 -3 16 29 15 30 17 14 27 -21 14 -30 12 -30 -5 0 -8 -6 -15 -14 -15 -9 0
-12 -7 -9 -20 3 -11 9 -20 14 -20 5 0 9 -9 9 -21 0 -11 -4 -17 -10 -14 -5 3
-10 -1 -10 -11 0 -13 3 -14 15 -4 8 6 18 9 23 6 5 -3 20 6 33 20 12 13 30 24
39 23 36 -3 41 0 30 20 -5 11 -7 22 -3 24 16 9 89 20 116 18 15 -1 27 2 27 8
0 6 17 11 38 12 41 1 36 4 -20 14 -21 3 -38 10 -38 16 0 5 11 7 24 3 24 -6 64
9 79 30 5 7 7 3 5 -9 -2 -16 2 -20 22 -18 14 1 18 0 8 -3 -25 -7 -23 -19 9
-54 32 -36 41 -37 49 -5 5 21 9 23 25 14 15 -7 19 -6 19 6 0 8 -4 15 -10 15
-5 0 -10 5 -10 10 0 6 7 10 15 10 8 0 15 5 15 10 0 6 4 10 9 10 4 0 7 -13 5
-30 -3 -25 0 -30 17 -30 13 0 19 6 17 18 -2 12 3 16 17 14 28 -5 31 -10 17
-32 -14 -23 -16 -60 -3 -60 5 0 8 8 7 18 -1 13 6 17 34 15 19 -1 39 -9 46 -17
7 -10 22 -15 40 -12 16 2 22 1 14 -1 -15 -5 -30 -22 -30 -34 0 -13 56 -27 100
-26 28 1 51 8 62 19 10 10 29 18 43 18 14 0 25 5 25 10 0 6 9 10 20 10 11 0
20 -4 20 -10 0 -5 -9 -10 -20 -10 -28 0 -25 -24 5 -44 14 -9 25 -12 25 -6 0 6
10 8 25 4 19 -5 25 -2 25 10 0 9 5 16 10 16 6 0 10 -8 10 -17 0 -14 2 -15 9
-4 6 10 11 5 16 -19 7 -30 8 -31 17 -14 14 26 58 67 58 54 0 -6 -7 -13 -15
-16 -17 -7 -21 -44 -5 -44 6 0 10 -7 10 -15 0 -8 5 -15 11 -15 6 0 8 9 4 20
-4 13 0 31 9 45 15 23 15 27 0 50 -15 23 -15 25 0 25 9 0 16 -7 16 -15 0 -8 7
-15 15 -15 8 0 15 -9 15 -20 0 -11 -6 -20 -14 -20 -8 0 -17 -7 -20 -16 -5 -12
-1 -14 15 -9 19 6 21 4 15 -19 -4 -15 -2 -26 4 -26 5 0 10 20 10 45 0 26 5 45
11 45 6 0 9 -9 6 -20 -6 -25 28 -28 37 -4 6 16 8 16 24 0 23 -20 43 -21 36 -2
-3 8 0 17 7 21 12 8 31 -16 35 -43 2 -8 17 -28 36 -44 l33 -31 -31 6 c-29 6
-30 5 -26 -26 3 -26 1 -29 -8 -17 -10 13 -11 12 -6 -3 3 -10 6 -23 6 -28 0 -5
7 -9 16 -9 13 0 14 -3 5 -14 -9 -10 -8 -16 4 -26 8 -7 15 -19 15 -28 0 -8 3
-12 8 -8 4 4 7 20 7 34 0 19 7 28 25 33 21 6 22 7 5 9 -11 1 -24 2 -29 1 -13
-3 -26 20 -26 47 0 18 4 22 19 17 11 -3 22 -1 26 5 3 5 17 10 30 10 18 0 24
-6 27 -27 2 -22 8 -28 28 -29 56 -2 70 -5 70 -15 0 -7 -11 -8 -30 -4 -16 3
-37 2 -47 -4 -14 -8 -11 -9 15 -5 31 6 32 5 32 -25 0 -37 12 -40 30 -6 9 17
19 23 31 20 9 -3 20 -1 24 5 3 5 1 10 -4 10 -6 0 -11 9 -11 20 0 11 5 20 10
20 6 0 10 -7 10 -15 0 -12 4 -13 25 -3 28 13 41 6 29 -14 -5 -7 -7 -20 -6 -30
2 -9 -2 -19 -8 -23 -5 -3 -10 2 -11 12 0 11 -3 13 -6 5 -5 -13 23 -52 37 -52
4 0 10 9 13 20 4 15 14 20 41 20 43 0 46 -7 9 -21 -16 -7 -23 -13 -15 -16 6
-3 12 -11 12 -19 0 -9 -4 -12 -10 -9 -5 3 -10 0 -10 -8 0 -9 9 -12 30 -9 25 3
30 9 28 26 -3 18 3 21 35 23 31 2 37 -1 37 -17 0 -13 7 -20 20 -20 11 0 20 -4
20 -10 0 -5 18 -10 39 -10 36 0 40 3 43 28 4 25 5 24 12 -12 6 -28 5 -40 -4
-46 -11 -7 -10 -11 3 -24 8 -9 19 -16 24 -16 4 0 16 -7 26 -14 16 -12 17 -18
7 -37 -12 -21 -11 -22 39 -17 29 3 57 10 62 15 7 7 -3 9 -34 6 -40 -5 -45 -3
-50 18 -5 17 -1 28 11 36 9 7 22 17 29 23 22 19 43 11 43 -15 0 -26 15 -34 23
-12 8 17 27 -12 20 -30 -3 -7 -1 -13 4 -13 5 0 8 -13 5 -30 -3 -18 0 -30 7
-30 6 0 11 9 11 19 0 13 5 18 18 15 21 -6 58 52 39 60 -7 2 -4 5 6 5 11 1 17
-6 17 -19 0 -11 -5 -20 -11 -20 -5 0 -7 -4 -4 -10 3 -5 16 -10 29 -10 12 0 30
-6 40 -13 17 -12 16 -14 -8 -25 -14 -6 -26 -16 -26 -22 0 -15 33 -26 38 -12 2
7 12 12 23 12 10 0 19 7 19 15 0 8 -4 15 -10 15 -5 0 -10 5 -10 10 0 6 5 10
10 10 18 0 70 -43 70 -58 0 -10 8 -12 33 -7 36 8 34 8 65 6 16 -1 22 -6 20
-18 -2 -14 4 -18 32 -18 46 -1 90 -20 90 -40 0 -8 3 -14 8 -13 4 1 19 -2 35
-6 20 -6 27 -15 27 -32 0 -29 11 -31 28 -4 9 15 19 18 42 14 23 -5 30 -3 30
10 0 30 19 16 25 -18 6 -27 11 -33 26 -29 10 3 19 10 19 15 0 5 -4 6 -10 3 -5
-3 -10 3 -10 14 0 24 15 28 27 7 12 -21 53 -2 54 26 1 21 1 20 11 -5 9 -25 11
-26 22 -11 7 9 18 14 24 10 15 -9 15 -39 0 -54 -9 -9 -9 -12 0 -12 6 0 16 9
22 21 9 16 14 18 26 8 12 -10 22 -5 56 31 l42 43 9 -26 c5 -17 16 -27 28 -27
14 0 19 -7 19 -30 0 -24 4 -30 21 -30 23 0 54 26 40 34 -5 4 -11 1 -13 -6 -3
-9 -9 -8 -21 4 -20 20 -21 35 -4 52 11 11 16 11 32 0 15 -11 21 -11 28 -1 5 7
6 -7 3 -35 -4 -32 -2 -48 5 -48 8 0 7 -5 -1 -15 -8 -10 -9 -15 -2 -15 6 0 17
10 23 22 7 13 18 29 26 36 7 7 13 21 14 30 0 11 2 12 6 5 2 -7 20 -13 38 -13
18 0 35 -6 38 -12 3 -7 2 6 0 29 -4 34 -2 44 11 49 39 15 53 -35 18 -63 -9 -7
-12 -16 -8 -20 10 -10 39 10 53 38 11 21 13 22 19 5 4 -11 2 -21 -7 -27 -9 -6
0 -9 29 -9 23 0 42 -4 42 -10 0 -5 13 -10 29 -10 21 0 32 -6 36 -19 3 -11 16
-21 28 -23 13 -2 24 -13 28 -28 7 -24 10 -22 13 10 0 8 6 15 11 15 18 0 60
-39 73 -68 8 -19 18 -27 27 -23 9 3 15 0 15 -9 0 -9 6 -12 17 -8 10 4 14 2 10
-4 -10 -16 3 -43 19 -43 8 0 14 -9 14 -19 0 -23 30 -37 41 -19 5 7 14 13 21
13 8 0 12 10 10 28 -2 15 0 27 5 27 10 0 10 51 0 68 -9 13 18 47 31 38 4 -2 7
-25 7 -50 0 -37 4 -46 20 -50 32 -8 40 -7 40 7 0 6 11 12 25 12 21 0 26 6 28
33 3 32 22 46 22 16 0 -13 3 -14 13 -5 17 14 27 4 27 -25 0 -13 5 -26 10 -29
10 -6 7 21 -6 63 -2 6 0 12 4 12 10 0 62 -95 62 -112 0 -7 12 -21 25 -31 24
-17 25 -17 25 2 0 11 9 25 20 31 11 6 20 15 20 21 0 6 9 23 21 37 l21 27 -3
-47 c-3 -28 0 -47 6 -45 5 1 9 6 7 12 -2 5 3 14 11 20 18 14 29 82 14 89 -7 3
-3 4 8 3 18 -2 20 4 20 73 1 77 21 143 48 153 16 6 40 81 27 85 -5 2 -7 10 -4
18 15 50 15 49 24 34 7 -11 10 -11 10 -2 0 7 -7 15 -15 18 -8 4 -15 12 -15 20
0 17 16 18 24 2 3 -7 5 -4 3 6 -1 11 -19 28 -39 39 -36 18 -43 37 -13 37 8 0
11 7 8 20 -3 11 0 20 6 20 6 0 11 7 11 15 0 18 -17 20 -23 3 -2 -7 -7 -10 -11
-7 -9 8 33 89 45 89 5 0 9 16 9 36 0 32 -2 35 -22 28 -20 -6 -21 -5 -10 9 10
12 10 16 0 21 -7 3 -1 4 15 2 17 -2 27 1 27 9 0 8 -8 11 -20 8 -13 -4 -20 0
-20 10 0 8 -11 18 -25 21 -18 5 -23 11 -18 24 4 12 3 14 -5 7 -5 -5 -12 -19
-14 -30 -5 -19 -5 -19 -13 -2 -5 12 -1 25 11 38 17 19 17 20 -2 13 -16 -7 -17
-5 -7 8 7 8 10 18 6 22 -4 4 -1 11 7 16 12 8 9 10 -10 10 -24 1 -24 1 -3 10
19 8 20 12 10 34 -6 13 -15 22 -19 20 -4 -3 -12 5 -18 16 -13 24 -30 26 -30 4
0 -8 -5 -12 -10 -9 -6 4 -8 11 -4 16 3 5 1 16 -6 24 -7 8 -7 15 -1 19 16 10 1
36 -21 36 -11 0 -22 -8 -25 -20 -5 -19 -43 -29 -43 -11 0 19 27 71 33 64 13
-12 7 13 -5 26 -11 11 -8 12 12 6 17 -4 21 -3 12 3 -8 5 -12 18 -10 28 3 11
-1 30 -8 44 -6 14 -10 40 -8 58 2 21 -1 32 -9 32 -8 0 -7 4 3 10 13 9 13 11 1
19 -14 9 -55 -10 -74 -34 -5 -6 -6 1 -3 15 3 14 6 28 6 32 0 3 9 4 20 1 11 -3
20 0 20 6 0 6 -4 12 -10 12 -5 1 -16 2 -22 3 -27 4 -48 -15 -48 -43 0 -24 -3
-28 -20 -24 -19 5 -20 7 -5 29 22 34 19 41 -17 37 -31 -4 -32 -3 -14 11 11 9
26 16 33 16 28 0 12 27 -17 28 -16 0 -30 -4 -30 -9 0 -5 -9 -9 -20 -9 -11 0
-20 -6 -20 -12 0 -9 -4 -8 -10 2 -8 12 -12 12 -18 3 -6 -10 -12 -10 -28 2 -10
8 -32 15 -47 15 -16 0 -26 4 -22 9 3 6 -1 14 -10 18 -8 5 -21 26 -28 48 -9 26
-24 45 -41 53 -15 8 -31 25 -36 38 -6 15 -16 24 -26 22 -11 -2 -22 8 -31 30
-13 31 -12 32 11 32 19 0 23 4 19 21 -4 15 0 22 16 26 11 3 18 9 15 14 -3 5
-10 7 -15 4 -5 -4 -9 -2 -9 4 0 6 10 15 21 22 18 9 24 8 31 -4 5 -9 15 -14 24
-10 12 4 13 15 8 49 -6 45 9 63 21 24 3 -11 12 -20 18 -20 7 0 6 -4 -3 -10 -8
-5 -12 -12 -8 -15 3 -4 15 -1 25 6 19 11 19 13 2 48 -19 39 -17 53 6 44 11 -4
15 2 15 21 l0 26 21 -21 c19 -19 19 -22 5 -38 -20 -22 -20 -31 -2 -31 8 0 16
-6 19 -12 3 -10 8 -9 22 2 17 14 18 13 11 -24 l-7 -39 40 6 c29 3 44 1 53 -10
10 -13 8 -14 -13 -12 -14 2 -38 -4 -53 -14 -22 -15 -25 -21 -15 -33 9 -11 8
-14 -5 -14 -9 0 -16 -5 -16 -10 0 -6 12 -8 27 -5 43 7 103 -5 103 -22 0 -8 7
-21 15 -29 18 -18 19 -11 4 17 -8 17 -7 23 8 35 17 13 17 14 -4 20 -25 7 -30
20 -10 27 7 3 5 6 -5 6 -11 1 -15 6 -12 15 3 8 0 17 -6 21 -7 4 -8 11 -1 18 6
8 5 19 -5 31 -11 16 -14 17 -14 4 0 -9 -7 -18 -15 -21 -18 -8 -32 13 -16 23
15 9 4 57 -15 64 -8 3 -14 17 -14 31 0 19 -5 25 -21 25 -11 0 -17 5 -14 10 3
6 1 10 -4 10 -6 0 -11 9 -11 20 0 43 -43 110 -71 110 -11 0 -16 8 -16 26 0 25
-32 64 -54 64 -6 0 -24 14 -39 30 -15 17 -33 30 -39 30 -16 0 -14 9 11 38 16
20 19 22 14 7 -7 -19 -6 -19 10 -3 17 17 12 54 -5 43 -15 -9 -79 53 -64 62 8
6 6 14 -7 31 -19 23 -45 29 -55 12 -3 -5 -10 -10 -16 -10 -5 0 -9 5 -9 10 0 6
7 10 15 10 13 0 14 4 3 23 -10 19 -13 20 -16 5 -5 -25 -12 -23 -51 12 -18 17
-38 29 -44 27 -14 -4 -57 33 -57 50 0 16 22 17 38 1 9 -9 12 -8 12 5 0 9 5 17
10 17 12 0 9 22 -5 32 -5 4 -22 8 -36 8 -21 0 -28 6 -33 30 -4 20 -14 34 -31
40 -19 7 -25 17 -25 39 0 16 5 31 12 33 8 3 4 15 -12 38 -21 30 -24 31 -31 14
-6 -15 -8 -12 -8 13 -1 24 -5 31 -15 27 -9 -4 -20 5 -30 23 -20 40 -86 103
-107 103 -27 0 -49 11 -43 22 3 5 -3 12 -15 15 -12 3 -21 9 -21 14 0 5 -6 6
-14 3 -9 -3 -19 4 -27 18 -6 13 -18 27 -25 31 -8 4 -14 15 -14 23 0 8 -4 13
-9 10 -4 -3 -16 3 -26 14 -10 11 -27 20 -37 20 -11 0 -17 4 -14 9 3 5 -1 14
-9 21 -8 7 -15 25 -15 41 0 15 -5 31 -10 34 -6 4 -17 21 -24 40 -8 18 -24 38
-35 45 -12 6 -21 21 -21 34 0 13 -7 26 -15 30 -11 4 -14 13 -9 31 4 16 2 25
-6 25 -7 0 -21 11 -31 24 -11 14 -32 26 -47 28 -17 2 -28 10 -31 23 -4 23 -21
37 -38 30 -17 -6 -63 38 -63 60 0 11 -5 15 -16 11 -8 -3 -12 -2 -9 4 3 6 -4
10 -15 10 -33 0 -80 32 -80 53 0 15 5 18 25 13 37 -9 33 25 -5 48 -17 9 -28
22 -24 27 7 13 -36 48 -59 49 -11 0 -31 8 -45 19 -24 17 -80 30 -137 32 -43 2
-65 10 -65 24 0 8 -7 15 -15 15 -8 0 -15 -4 -15 -10 0 -16 -27 -12 -34 5 -3 8
-12 15 -21 15 -8 0 -15 6 -15 14 0 8 -9 21 -20 29 -17 11 -22 32 -30 118 -5
57 -12 142 -14 189 -2 49 -9 86 -15 88 -6 2 -11 16 -11 30 0 15 -5 43 -10 62
-17 58 -30 313 -16 327 7 7 175 6 278 -2 l96 -8 16 31 c9 17 16 40 16 52 0 24
8 24 -244 3z m-3922 -5954 c-3 -5 -14 -9 -24 -9 -10 0 -22 -5 -26 -11 -3 -6
-19 -9 -35 -5 -16 3 -29 1 -29 -4 0 -6 12 -10 27 -10 14 0 24 -3 21 -6 -3 -3
-25 -5 -48 -6 -31 0 -40 -4 -36 -14 3 -8 -1 -14 -9 -14 -9 0 -12 -6 -8 -16 4
-10 -1 -17 -16 -21 -22 -6 -29 -23 -9 -23 7 0 5 -7 -5 -18 -11 -12 -13 -22 -6
-34 7 -13 6 -16 -3 -13 -8 3 -22 -1 -33 -9 -19 -15 -19 -15 7 -16 15 0 29 -4
32 -8 2 -4 -11 -6 -30 -4 -31 4 -35 2 -40 -27 -4 -17 -10 -28 -15 -25 -5 3 -9
-4 -9 -16 0 -17 -4 -19 -25 -14 -19 5 -25 2 -25 -9 0 -9 10 -17 23 -19 17 -2
22 -10 22 -33 0 -16 -3 -38 -7 -47 -5 -11 -2 -21 9 -30 10 -7 19 -28 20 -48 2
-35 2 -35 -8 -7 -10 26 -28 35 -42 20 -4 -3 1 -15 10 -25 15 -17 15 -21 3 -29
-12 -8 -10 -10 8 -6 12 3 22 0 22 -5 0 -6 8 -17 18 -24 16 -12 16 -13 0 -19
-10 -4 -18 -11 -18 -16 0 -5 8 -9 18 -10 9 0 12 -3 5 -5 -7 -3 -9 -12 -6 -20
3 -8 0 -14 -6 -14 -6 0 -11 -9 -11 -20 0 -14 7 -20 23 -21 15 -1 17 -3 6 -6
-14 -3 -15 -9 -6 -38 8 -27 7 -37 -5 -49 -18 -18 -17 -68 2 -91 10 -12 10 -15
-4 -15 -9 0 -16 5 -16 11 0 5 -5 7 -10 4 -6 -4 -7 -12 -3 -18 4 -7 8 -18 9
-25 3 -20 16 -29 21 -14 5 14 53 17 53 3 0 -5 -18 -12 -40 -16 -41 -7 -58 -35
-20 -35 29 0 70 21 70 37 0 13 17 18 58 14 12 -1 22 3 22 9 0 5 -7 10 -15 10
-8 0 -15 4 -15 9 0 4 18 8 40 8 22 0 40 -4 40 -9 0 -6 11 -7 25 -4 25 6 36 -8
13 -17 -7 -3 4 -6 25 -6 21 -1 47 -6 58 -11 23 -13 24 -7 3 25 -16 24 -15 25
5 25 12 0 21 -6 21 -15 0 -17 25 -20 35 -5 4 6 11 8 16 4 6 -3 3 -12 -8 -20
-10 -7 -14 -14 -9 -14 6 0 1 -6 -10 -14 -21 -16 -23 -14 32 -31 9 -3 12 -10 7
-17 -4 -7 -8 -22 -8 -32 0 -11 -6 -21 -14 -24 -10 -3 -12 1 -8 17 4 18 1 21
-23 21 -16 0 -31 -4 -34 -8 -3 -5 -27 -6 -55 -2 -68 9 -112 4 -123 -12 -8 -10
-9 -10 -6 1 6 21 -30 54 -53 48 -10 -3 -19 -1 -19 4 0 5 -7 9 -15 9 -8 0 -15
-4 -15 -9 0 -5 -12 -14 -27 -19 -25 -9 -21 -11 32 -12 56 -2 58 -3 27 -11 -37
-11 -50 -32 -33 -53 7 -9 8 -15 2 -18 -5 -1 -11 -16 -13 -33 -3 -27 0 -30 24
-30 31 0 43 -9 33 -25 -6 -9 -10 -9 -16 1 -6 10 -9 6 -9 -12 0 -15 7 -32 15
-39 8 -7 15 -25 15 -41 0 -19 6 -30 20 -34 11 -3 20 -11 20 -16 0 -5 9 -9 19
-9 11 0 23 -5 27 -11 3 -6 19 -9 34 -7 20 3 27 1 23 -9 -3 -7 -14 -13 -25 -13
-10 0 -17 -4 -14 -8 8 -14 68 -1 62 13 -3 8 6 15 22 18 33 6 39 2 22 -18 -15
-18 1 -20 18 -3 8 8 39 12 85 10 69 -2 71 -1 42 12 -27 13 -28 14 -7 15 12 1
22 7 23 14 0 10 2 10 6 0 7 -18 40 -16 47 2 6 16 46 21 46 6 0 -5 12 -11 28
-13 21 -2 30 3 39 22 l12 25 -6 -28 c-4 -22 -2 -27 13 -25 49 4 72 -2 70 -19
-1 -12 6 -18 19 -18 14 0 19 6 17 18 -2 13 4 17 25 17 25 -1 26 -2 10 -11 -18
-10 -18 -11 0 -24 15 -12 16 -17 6 -34 -8 -13 -9 -22 -3 -26 13 -8 32 4 25 15
-3 4 5 10 16 13 14 4 19 2 15 -8 -2 -7 2 -16 10 -19 25 -10 34 -7 28 9 -7 18
-8 18 34 6 30 -9 31 -8 21 11 -12 23 -2 40 11 18 7 -12 10 -12 16 3 4 12 13
16 25 12 12 -4 21 -1 25 9 10 27 26 5 21 -28 -3 -17 -3 -25 0 -18 7 17 30 15
37 -5 5 -11 10 -13 17 -6 6 6 24 8 42 3 41 -9 62 -3 47 15 -7 9 -3 19 16 39
15 14 31 26 36 26 6 0 18 10 27 22 11 13 20 17 24 10 4 -6 1 -17 -7 -25 -22
-22 -9 -27 26 -10 21 11 36 13 51 6 32 -14 47 -5 47 28 0 16 5 29 11 29 6 0 9
-9 6 -20 -3 -11 -1 -23 4 -26 5 -3 9 0 9 6 0 23 83 80 97 66 2 -2 -5 -7 -16
-11 -12 -3 -21 -12 -21 -20 0 -19 51 -25 74 -9 14 10 23 10 32 3 19 -16 34 -2
34 31 0 32 33 60 46 39 5 -9 11 -7 20 6 12 16 14 17 20 2 11 -29 -4 -67 -26
-67 -11 0 -20 5 -20 12 0 6 -2 9 -5 6 -15 -15 10 -38 41 -38 28 0 34 4 34 21
0 13 4 18 13 13 10 -6 10 -4 0 7 -7 7 -13 27 -12 44 0 16 3 24 6 18 5 -15 33
-18 33 -4 0 5 -6 12 -12 14 -14 6 -9 7 43 11 18 1 25 -3 22 -11 -4 -9 5 -13
28 -13 32 -1 33 -1 15 -15 -14 -11 -17 -18 -9 -26 5 -5 8 -21 5 -35 -4 -23 -8
-24 -44 -19 -31 5 -39 3 -35 -7 2 -7 12 -12 21 -12 15 2 20 -12 17 -48 -2 -13
5 -18 24 -18 14 0 24 -4 21 -9 -9 -13 -55 -20 -59 -8 -4 12 -27 0 -27 -14 0
-5 7 -9 15 -9 8 0 15 -4 15 -10 0 -13 -13 -13 -28 2 -14 14 -42 -6 -42 -29 0
-13 -3 -13 -15 -3 -11 9 -19 10 -27 2 -17 -17 1 -33 29 -26 21 6 25 4 20 -8
-4 -12 0 -14 16 -10 12 2 28 9 35 15 8 6 12 6 12 -2 0 -12 -36 -49 -109 -111
-22 -19 -56 -50 -75 -68 -28 -26 -39 -31 -53 -24 -9 6 -26 6 -37 2 -40 -15
-211 -49 -301 -60 -215 -24 -512 -33 -713 -21 -283 17 -418 39 -582 96 -58 20
-110 37 -117 39 -19 3 -96 80 -128 127 -75 108 -161 374 -184 569 -6 47 -16
130 -23 185 -12 103 -15 202 -5 211 3 3 19 -2 36 -10 24 -13 35 -14 55 -5 14
7 23 16 19 22 -4 6 4 7 20 3 28 -7 31 -2 40 72 3 25 0 32 -14 32 -10 0 -21 5
-24 10 -3 6 -15 10 -27 10 -11 0 -35 7 -54 16 -32 15 -34 19 -34 69 0 35 5 57
15 65 8 7 15 20 15 29 0 9 14 31 30 50 20 22 30 28 30 18 0 -9 -8 -20 -17 -26
-14 -8 -18 -22 -17 -68 1 -32 2 -72 3 -90 0 -17 5 -34 10 -37 9 -6 15 32 25
154 8 96 15 117 50 133 77 38 113 50 189 63 45 7 98 17 117 23 19 5 63 12 98
16 54 5 62 4 62 -11 0 -16 1 -16 18 -1 10 10 26 17 35 17 9 0 17 4 17 10 0 5
20 9 45 8 24 0 42 -4 39 -9z m4986 -216 c8 -3 24 -6 35 -7 35 -4 169 -37 187
-47 10 -5 27 -9 37 -9 11 0 22 -4 25 -9 3 -5 18 -12 32 -15 15 -4 33 -14 42
-22 8 -9 23 -13 33 -11 11 3 19 -2 22 -14 3 -10 16 -23 29 -28 70 -27 115
-161 74 -224 -10 -15 -25 -27 -33 -27 -10 0 -13 -6 -9 -16 3 -9 6 -19 6 -22 0
-4 4 -1 9 7 14 22 44 -53 44 -108 -1 -67 -26 -241 -35 -241 -4 0 -8 -23 -8
-52 0 -28 -3 -48 -7 -44 -9 8 -53 -108 -53 -140 0 -13 -4 -24 -8 -24 -5 0 -7
-12 -4 -28 2 -19 -3 -33 -17 -46 -12 -11 -21 -27 -21 -37 0 -10 -4 -20 -9 -23
-5 -3 -12 -22 -15 -41 -4 -19 -11 -35 -16 -35 -6 0 -10 -13 -10 -30 0 -16 -5
-30 -12 -30 -6 0 -8 -3 -5 -6 3 -4 -3 -18 -13 -32 -11 -13 -20 -30 -20 -36 0
-7 -7 -21 -15 -31 -21 -28 -77 -113 -95 -146 -8 -15 -28 -38 -45 -50 -16 -13
-32 -26 -35 -29 -3 -4 -20 -13 -37 -21 -18 -8 -33 -17 -33 -20 0 -11 -52 -28
-105 -35 -27 -3 -77 -12 -110 -19 -156 -35 -516 -41 -795 -15 -223 21 -465 68
-585 113 -58 22 -176 72 -208 89 -33 18 -117 103 -117 119 0 6 -12 25 -26 42
-16 20 -24 39 -21 53 3 18 -2 26 -22 33 -14 5 -20 10 -13 10 19 1 14 16 -17
50 -37 40 -46 71 -20 71 10 0 19 5 19 10 0 6 -4 10 -9 10 -6 0 -10 8 -10 18
-2 81 -8 124 -18 130 -6 4 -15 23 -21 42 -5 19 -13 43 -17 53 -5 12 -2 17 9
17 9 0 16 -6 17 -12 0 -10 2 -10 6 0 7 17 23 15 23 -3 0 -9 11 -20 25 -25 14
-5 25 -14 25 -20 0 -5 8 -10 18 -10 20 0 82 -53 82 -70 0 -6 4 -9 9 -6 5 3 14
-7 19 -23 15 -42 50 -74 70 -65 18 7 41 7 80 -2 18 -4 22 -11 22 -44 0 -23 5
-40 11 -40 6 0 9 6 6 14 -7 18 12 36 38 36 16 0 17 -2 5 -10 -24 -15 5 -35 50
-34 27 1 37 -2 34 -11 -10 -25 15 -25 34 0 25 31 32 32 32 0 0 -28 17 -34 27
-10 5 14 8 14 27 2 46 -30 136 -41 137 -17 0 10 2 11 6 3 2 -7 11 -13 19 -13
7 0 19 -9 26 -20 14 -22 33 -27 25 -7 -4 10 6 12 47 6 28 -3 59 -2 69 3 14 7
19 3 27 -18 10 -25 11 -26 35 -10 34 22 52 21 32 -2 -10 -10 -14 -22 -10 -25
9 -10 43 23 43 41 0 11 3 12 14 3 10 -8 31 -10 63 -6 35 5 44 4 33 -4 -12 -9
-11 -11 7 -11 12 0 29 8 39 17 16 16 16 16 10 -2 -5 -18 0 -20 53 -23 53 -2
59 0 64 19 6 21 6 21 24 4 16 -17 18 -17 21 -2 2 9 11 16 20 15 39 -3 52 3 52
22 0 18 4 20 40 14 25 -4 40 -3 40 4 0 5 14 15 30 21 17 5 30 17 30 26 0 9 7
15 17 13 10 -2 22 7 29 20 7 15 14 20 19 13 3 -6 11 -8 17 -5 6 4 5 10 -3 15
-10 6 -6 9 14 9 21 0 27 5 27 21 0 18 2 19 15 9 15 -13 19 -8 16 23 -3 24 8
21 18 -5 6 -17 8 -9 8 30 -1 51 -2 53 -24 49 -14 -3 -27 2 -32 11 -6 10 -22
15 -44 14 -27 -1 -36 3 -40 19 -3 12 -10 18 -16 15 -14 -9 -24 13 -12 27 6 8
6 18 1 27 -13 21 -12 70 1 70 8 0 8 5 -1 15 -10 12 -9 16 6 21 11 3 32 11 47
16 23 9 32 8 45 -6 10 -10 12 -16 4 -16 -7 0 -12 -5 -12 -11 0 -7 11 -9 33 -5
17 4 40 7 50 7 9 0 17 5 17 11 0 5 6 8 13 5 8 -3 20 -1 27 3 8 5 22 4 32 -1
24 -13 58 -2 58 17 0 12 4 12 20 4 34 -18 90 9 90 44 0 8 4 18 10 21 5 3 9 16
9 28 -1 12 6 41 14 65 9 23 14 49 10 57 -3 9 0 22 7 30 7 8 10 24 7 34 -3 11
2 29 10 40 10 15 11 21 2 21 -8 0 -9 3 0 13 14 18 2 30 -16 16 -10 -9 -13 -8
-13 5 0 10 4 15 9 12 13 -8 37 24 25 32 -18 12 -25 45 -12 54 10 7 10 11 1 14
-7 3 -9 13 -6 22 6 15 5 16 -12 2 -17 -14 -18 -13 -12 18 6 27 4 32 -13 32
-23 0 -36 18 -22 32 8 8 6 18 -5 34 -10 15 -13 34 -8 56 5 26 4 29 -5 16 -11
-18 -36 -23 -64 -12 -22 9 -10 24 20 24 13 0 24 4 24 9 0 17 -19 22 -41 11
-26 -14 -29 -12 -22 22 5 28 20 30 73 11z m-4369 -140 c0 -11 3 -13 6 -5 5 13
33 17 33 4 0 -4 -5 -13 -12 -20 -6 -6 -12 -26 -12 -44 -1 -32 -2 -33 -46 -32
-25 0 -51 -5 -58 -13 -8 -7 -17 -11 -22 -8 -4 3 -39 -1 -77 -8 -74 -14 -84
-11 -97 31 -4 12 -12 19 -18 16 -6 -4 -14 0 -19 7 -14 22 -11 29 11 29 11 0
20 -5 20 -11 0 -5 5 -7 10 -4 17 10 11 25 -10 25 -11 0 -20 5 -20 10 0 6 17
10 38 11 20 0 64 6 97 14 33 7 86 14 118 14 48 1 57 -2 58 -16z m3881 -134 c3
-9 10 -8 24 1 17 11 29 10 71 -4 28 -9 54 -24 57 -32 3 -7 13 -14 23 -14 18 0
83 -49 83 -62 0 -4 11 -19 25 -34 14 -15 25 -33 25 -40 0 -7 8 -18 18 -23 16
-10 15 -10 -3 -12 -17 -1 -16 -2 5 -9 l25 -8 -28 -1 c-18 -1 -27 -6 -24 -13 2
-7 12 -12 21 -12 9 1 16 -4 16 -11 0 -7 5 -15 11 -17 7 -2 9 -13 4 -27 -4 -13
-10 -19 -14 -14 -3 5 -26 14 -51 19 -32 6 -48 16 -55 32 -5 12 -18 22 -28 22
-10 0 -20 7 -23 15 -3 8 -30 26 -60 40 -30 14 -54 30 -54 35 0 6 -12 10 -27
10 -19 0 -24 3 -15 9 19 11 -8 21 -58 21 -34 0 -38 2 -33 23 4 17 3 19 -6 11
-9 -8 -21 -8 -46 1 -49 16 -56 28 -15 22 19 -2 27 -2 17 0 -16 4 -16 6 5 28
20 21 23 22 35 7 11 -15 12 -14 13 11 0 17 4 26 10 22 6 -4 8 -11 4 -16 -10
-17 4 -39 22 -32 12 4 14 14 10 34 -5 27 8 42 16 18z m-2092 -415 c0 -8 7 -14
15 -14 8 0 15 -4 15 -8 0 -5 9 -18 21 -30 11 -12 18 -26 15 -31 -3 -5 1 -11 9
-15 9 -3 12 -12 8 -22 -5 -13 -3 -16 10 -11 13 5 17 1 17 -18 0 -15 6 -25 15
-25 15 0 45 -49 45 -74 0 -8 8 -20 18 -25 9 -6 13 -11 8 -11 -5 0 -1 -9 8 -19
10 -11 15 -25 11 -30 -3 -6 0 -11 7 -11 15 0 38 -45 38 -74 0 -10 3 -16 7 -13
6 7 21 -15 47 -70 9 -17 19 -33 24 -35 14 -5 72 -95 72 -111 0 -8 7 -20 15
-27 8 -7 13 -16 10 -20 -3 -4 4 -19 15 -33 11 -14 20 -30 20 -36 0 -6 4 -11
10 -11 5 0 14 -18 20 -40 6 -22 16 -40 22 -40 16 0 68 -57 68 -75 0 -8 6 -14
13 -12 6 1 11 -4 9 -11 -1 -7 11 -24 27 -37 23 -20 28 -32 27 -65 0 -22 -5
-40 -10 -40 -5 0 -6 -3 -2 -7 4 -5 13 -8 19 -8 6 0 14 -17 18 -38 6 -39 60
-102 124 -143 48 -31 155 -161 155 -189 0 -7 4 -15 10 -17 9 -3 15 -78 12
-159 -2 -28 -6 -36 -19 -35 -13 1 -17 -5 -15 -22 3 -20 0 -22 -23 -16 -25 6
-27 5 -20 -17 3 -14 3 -19 -2 -12 -9 13 -36 2 -33 -13 2 -17 -27 -15 -45 2
-12 13 -37 18 -87 20 -41 2 -79 9 -93 18 -12 8 -32 12 -44 9 -11 -3 -21 -1
-21 5 0 6 -10 14 -22 18 -13 3 -31 13 -40 22 -14 12 -21 12 -33 2 -12 -10 -16
-8 -26 12 -9 21 -18 25 -54 25 -24 0 -42 -4 -40 -8 6 -8 -37 -21 -45 -12 -3 3
1 8 8 10 21 8 13 23 -12 23 -12 0 -38 5 -56 12 -26 9 -35 9 -38 0 -5 -16 -33
-15 -30 0 2 7 -14 15 -40 18 -23 4 -48 12 -54 18 -14 14 -64 16 -72 3 -10 -15
-86 -18 -86 -4 0 7 -5 13 -11 13 -5 0 -7 -5 -3 -11 5 -8 -6 -10 -33 -8 -35 4
-39 2 -35 -14 4 -15 0 -17 -22 -11 -16 4 -32 1 -41 -6 -8 -7 -15 -8 -15 -3 0
5 -12 10 -27 11 -45 1 -67 8 -71 20 -2 7 -10 12 -18 12 -8 0 -11 -6 -8 -15 9
-23 -8 -18 -34 10 -22 23 -54 25 -49 2 1 -6 -6 -13 -15 -15 -11 -2 -18 2 -18
12 0 23 -27 20 -42 -4 -15 -23 -28 -26 -28 -6 0 11 -8 12 -34 6 -19 -4 -40 -4
-47 1 -20 12 -29 11 -26 -3 1 -7 -7 -12 -17 -11 -11 1 -42 -2 -70 -7 -35 -5
-53 -4 -58 4 -5 7 -8 4 -8 -8 0 -14 -5 -17 -24 -12 -17 4 -26 1 -30 -11 -6
-15 -8 -15 -16 -3 -7 10 -10 11 -10 3 0 -7 -7 -13 -16 -13 -8 0 -12 5 -9 10
15 24 -26 7 -49 -21 -21 -24 -29 -29 -40 -20 -10 8 -16 8 -25 -3 -6 -8 -21
-12 -31 -9 -11 3 -20 0 -20 -6 0 -15 -30 -14 -31 2 0 6 -4 2 -9 -10 -6 -15
-18 -23 -33 -23 -14 0 -31 -10 -40 -22 -8 -13 -19 -19 -23 -15 -5 4 -2 12 6
17 13 8 13 11 1 22 -11 10 -14 10 -18 1 -3 -8 -20 -13 -41 -12 -20 0 -31 3
-24 6 6 2 12 12 12 20 0 13 -3 13 -15 3 -13 -11 -20 -11 -40 0 -29 16 -33 30
-7 30 16 1 16 1 0 11 -20 11 -26 89 -8 89 6 0 10 14 10 31 0 31 57 149 72 149
5 0 8 5 8 11 0 12 39 58 126 150 30 31 54 60 54 64 0 4 9 18 20 32 11 14 20
32 20 40 0 9 11 24 25 35 14 11 25 25 25 31 0 15 65 87 79 87 5 0 7 10 4 21
-4 16 -2 20 8 17 15 -5 39 33 39 63 0 11 7 19 15 19 8 0 15 7 15 15 0 7 6 18
14 22 8 4 26 31 41 58 15 28 38 64 51 82 13 17 24 35 24 39 0 4 26 41 59 83
32 42 61 86 65 98 4 11 13 27 21 33 8 7 15 20 15 30 0 10 6 20 13 23 8 3 23
25 35 49 19 41 116 148 134 148 4 0 8 6 8 13 0 18 47 62 67 62 16 0 26 14 38
49 5 19 6 19 20 0 14 -19 14 -19 28 0 8 10 18 17 23 13 5 -3 23 1 39 8 43 18
105 17 105 -1z m-1510 -2489 c12 -30 30 -33 23 -4 -4 15 -2 20 8 17 7 -2 18
-26 24 -52 10 -47 30 -60 30 -19 -1 12 5 25 12 27 10 4 12 -1 7 -20 -4 -17 -2
-29 7 -35 20 -13 29 -11 29 5 0 9 7 12 20 9 11 -3 20 -9 20 -14 0 -12 47 -11
55 1 3 6 11 10 17 10 6 0 8 -19 3 -52 -4 -36 -3 -48 4 -39 8 12 12 13 26 1 12
-10 19 -10 27 -2 18 18 28 14 28 -8 0 -11 -8 -23 -17 -26 -38 -12 -83 -39 -82
-49 1 -14 17 -52 18 -42 1 4 12 0 27 -9 14 -9 21 -20 17 -25 -14 -12 -88 5
-89 21 -3 32 -6 34 -14 14 -6 -16 -15 -20 -39 -16 -19 2 -31 0 -31 -7 0 -6 -7
-11 -15 -11 -8 0 -15 -5 -15 -12 0 -9 -3 -9 -12 0 -7 7 -20 12 -30 12 -27 0
-21 23 12 45 33 22 41 42 11 26 -14 -8 -23 -6 -36 9 -10 11 -20 19 -24 19 -3
-1 -17 2 -29 6 -16 5 -20 10 -12 15 20 12 -18 62 -41 55 -10 -4 -27 -2 -36 4
-17 9 -17 10 -1 16 17 7 14 34 -5 46 -6 4 -6 15 -2 25 7 18 8 18 12 2 5 -21
29 -19 63 6 16 12 21 20 13 23 -14 5 -18 35 -6 46 10 11 13 9 23 -18z"/>
<path d="M5896 12488 c-28 -31 -30 -36 -17 -57 7 -11 47 -15 183 -17 164 -3
385 -9 637 -20 63 -2 118 -7 123 -10 5 -3 15 0 23 6 11 9 15 9 15 1 0 -7 9 -9
26 -5 40 10 164 10 167 0 2 -5 86 -9 195 -9 170 0 192 -1 192 -16 0 -10 15 0
44 29 42 42 43 46 28 63 -9 10 -24 16 -34 14 -10 -3 -20 -2 -23 2 -2 4 -27 5
-55 1 -28 -4 -54 -2 -57 3 -3 5 -14 7 -24 4 -10 -3 -22 -1 -25 4 -3 5 -25 9
-50 9 -25 0 -43 -4 -40 -9 3 -5 -2 -12 -11 -15 -9 -4 -20 -2 -23 5 -5 7 -17 8
-30 4 -15 -5 -20 -4 -16 4 4 6 2 11 -3 11 -6 0 -11 -3 -11 -7 0 -5 -69 -7
-152 -5 -84 2 -173 4 -198 4 -25 1 -67 1 -95 0 -86 -3 -185 3 -185 11 0 4 -20
5 -44 3 -24 -2 -47 -1 -51 2 -10 10 -65 8 -65 -2 0 -5 -6 -4 -13 2 -8 7 -49 9
-111 6 -64 -3 -103 -1 -111 6 -10 8 -19 8 -33 -1 -15 -10 -34 -10 -75 -3 -53
10 -55 9 -81 -18z"/>
</g>
</svg>
