<?xml version="1.0" standalone="no"?>
<!DOCTYPE svg PUBLIC "-//W3C//DTD SVG 20010904//EN"
 "http://www.w3.org/TR/2001/REC-SVG-20010904/DTD/svg10.dtd">
<svg version="1.0" xmlns="http://www.w3.org/2000/svg"
 width="251.000000pt" height="302.000000pt" viewBox="0 0 251.000000 302.000000"
 preserveAspectRatio="xMidYMid meet">
<metadata>
Created by potrace 1.16, written by Peter Selinger 2001-2019
</metadata>
<g transform="translate(0.000000,302.000000) scale(0.100000,-0.100000)"
fill="#000000" stroke="none">
<path d="M1038 3003 c-2 -32 3 -68 13 -77 23 -24 6 -34 -76 -47 -47 -7 -88
-16 -91 -21 -3 -4 -1 -8 5 -8 5 0 12 -8 14 -17 4 -14 5 -12 6 5 1 26 10 28 37
7 23 -17 38 -19 28 -4 -4 7 1 10 11 7 23 -4 32 -28 11 -28 -14 0 -14 -3 -4
-20 14 -21 38 -27 38 -9 0 12 41 59 51 59 4 0 9 -20 11 -44 8 -71 51 -99 83
-53 8 12 18 20 22 17 4 -3 8 27 10 67 2 69 21 123 44 123 5 0 9 14 9 30 l0 30
-110 0 c-98 0 -110 -2 -112 -17z"/>
<path d="M1307 2674 c-3 -4 -72 -6 -153 -5 l-146 2 -52 -35 c-28 -19 -64 -49
-81 -66 -16 -18 -52 -48 -80 -66 -121 -81 -283 -266 -309 -354 -9 -30 -16 -68
-16 -86 0 -42 -45 -143 -68 -151 -9 -3 -25 -13 -34 -20 -9 -9 -22 -12 -29 -7
-9 5 -7 10 7 15 18 7 17 8 -3 8 -12 1 -25 -4 -29 -10 -3 -6 -15 -8 -26 -6 -27
7 -33 -15 -13 -52 16 -32 39 -41 48 -18 7 18 74 50 87 42 6 -3 10 -22 10 -41
0 -40 -20 -53 -54 -35 -13 7 -36 11 -52 9 -25 -3 -29 -7 -29 -33 0 -33 4 -34
80 -20 38 6 42 5 53 -20 7 -15 13 -72 13 -132 1 -92 -2 -109 -20 -134 -12 -16
-24 -42 -28 -59 -3 -17 -9 -32 -13 -35 -9 -6 5 -86 24 -140 8 -22 16 -49 18
-60 2 -11 9 -20 17 -20 7 0 37 -34 65 -75 48 -69 56 -76 105 -91 l54 -16 23
-79 c25 -87 51 -306 40 -347 -5 -21 -15 -29 -51 -38 -25 -6 -64 -25 -88 -42
-23 -17 -67 -44 -97 -59 -30 -15 -66 -36 -80 -47 -14 -10 -70 -48 -125 -84
-55 -37 -138 -97 -185 -134 -71 -57 -86 -74 -88 -101 l-3 -32 730 0 c708 0
731 1 731 19 0 10 -7 24 -15 31 -8 7 -12 16 -9 21 11 18 -7 49 -29 49 -26 1
-57 22 -57 39 0 6 12 17 26 23 15 7 53 51 87 103 33 49 72 100 86 112 14 12
23 24 21 26 -3 2 -42 11 -88 20 -62 12 -87 21 -102 39 -24 28 -26 71 -4 89 9
7 20 24 26 38 11 30 -13 54 -46 45 -15 -3 -24 2 -33 21 -11 24 -10 25 19 25
34 0 62 28 47 46 -6 7 5 17 34 29 23 11 44 20 46 22 7 5 -21 33 -28 29 -4 -3
-13 -1 -21 5 -13 7 -12 9 1 9 9 0 52 12 94 26 43 14 92 28 109 29 17 2 43 7
59 10 17 5 27 3 27 -4 0 -36 92 9 108 52 25 70 6 118 -88 217 -44 46 -120 72
-120 40 0 -5 23 -37 50 -71 28 -34 50 -72 50 -84 0 -11 5 -26 11 -32 16 -16 4
-42 -25 -53 -23 -8 -186 -14 -231 -8 -12 2 -19 -2 -17 -10 3 -17 -82 -16 -97
2 -13 15 -5 24 46 50 18 9 37 25 43 36 9 17 6 24 -19 46 -35 29 -41 57 -24
102 10 25 11 42 3 70 -6 20 -17 80 -25 132 -8 52 -21 118 -29 147 -8 28 -12
60 -9 71 5 21 -16 70 -41 95 -8 8 -17 28 -20 43 l-6 29 12 -27 c7 -16 17 -28
23 -28 18 0 90 69 88 83 -2 7 7 17 20 22 15 7 23 20 25 43 2 17 7 32 13 32 17
0 9 18 -23 49 l-32 31 33 6 c25 5 31 11 29 28 -2 12 6 28 19 39 26 21 31 65 8
73 -8 4 -12 10 -9 15 3 5 0 9 -5 9 -6 0 -11 3 -11 8 0 4 17 6 39 4 21 -2 42 1
45 7 4 6 20 11 35 11 21 0 30 6 34 21 3 12 10 18 17 14 6 -4 27 -7 46 -7 29 0
41 -8 78 -51 24 -29 56 -79 71 -112 27 -59 79 -305 106 -500 7 -49 18 -108 25
-130 11 -35 12 -23 8 95 -10 286 -26 461 -50 525 -4 11 -18 37 -31 57 -13 21
-23 48 -23 60 0 13 -7 32 -15 42 -8 10 -12 23 -9 27 2 5 -6 25 -19 46 -17 27
-22 45 -17 63 4 14 5 41 2 59 -4 28 -8 32 -28 28 -16 -3 -24 1 -27 15 -3 11 0
22 8 25 24 9 -38 53 -74 53 -27 0 -32 4 -38 30 -4 23 -9 28 -18 20 -17 -14
-42 -3 -89 37 -22 18 -50 33 -63 33 -13 0 -23 6 -23 13 0 24 -124 50 -143 31z"/>
<path d="M2445 2435 c-33 -7 -76 -18 -95 -24 -19 -6 -51 -11 -71 -11 -20 0
-42 -7 -49 -15 -7 -8 -20 -15 -29 -15 -9 0 -41 -9 -71 -19 -41 -14 -51 -21
-38 -26 10 -4 37 -4 60 -1 24 4 60 6 80 6 21 0 66 6 100 14 35 8 89 17 121 21
l57 7 0 39 c0 22 -1 38 -2 38 -2 -1 -30 -7 -63 -14z"/>
<path d="M1629 1765 c-22 -13 -63 -20 -142 -28 -14 -1 -17 -10 -15 -52 1 -27
-6 -80 -17 -118 -15 -56 -16 -72 -6 -94 9 -20 15 -24 21 -14 10 16 30 6 30
-16 0 -9 6 -13 15 -9 8 3 15 1 15 -4 0 -6 -6 -10 -12 -10 -7 -1 4 -16 25 -34
20 -18 37 -38 37 -45 0 -15 17 -14 23 2 3 6 6 2 6 -10 1 -12 8 -29 17 -37 30
-30 134 2 134 41 0 8 11 25 25 38 16 14 28 39 32 62 3 21 10 44 16 51 7 9 7
16 -1 24 -7 7 -12 20 -12 30 0 38 -81 79 -140 70 -24 -3 -31 -1 -25 7 4 7 -1
18 -11 26 -13 9 -16 17 -9 23 20 20 105 62 124 62 12 0 21 4 21 10 0 28 -111
46 -151 25z"/>
<path d="M1780 544 c0 -5 17 -18 37 -29 64 -34 100 -129 82 -213 -26 -123 -49
-178 -112 -274 l-18 -28 370 0 371 0 0 144 0 144 -49 21 c-27 11 -54 21 -59
21 -6 0 -51 16 -101 35 -49 19 -99 35 -110 35 -11 0 -42 11 -69 25 -28 14 -64
28 -81 31 -17 4 -34 11 -37 15 -3 5 -12 9 -20 9 -9 0 -46 13 -82 29 -78 34
-122 47 -122 35z"/>
</g>
</svg>
