<?xml version="1.0" standalone="no"?>
<!DOCTYPE svg PUBLIC "-//W3C//DTD SVG 20010904//EN"
 "http://www.w3.org/TR/2001/REC-SVG-20010904/DTD/svg10.dtd">
<svg version="1.0" xmlns="http://www.w3.org/2000/svg"
 width="348.000000pt" height="376.000000pt" viewBox="0 0 348.000000 376.000000"
 preserveAspectRatio="xMidYMid meet">
<metadata>
Created by potrace 1.16, written by Peter Selinger 2001-2019
</metadata>
<g transform="translate(0.000000,376.000000) scale(0.100000,-0.100000)"
fill="#000000" stroke="none">
<path d="M0 3705 l0 -55 783 0 782 0 -80 -29 c-100 -35 -152 -61 -240 -120
-115 -77 -269 -224 -328 -315 -106 -162 -197 -310 -197 -322 0 -3 -14 -36 -31
-72 -28 -61 -61 -156 -134 -389 -38 -124 -70 -190 -95 -198 -15 -5 -18 -10
-11 -19 17 -20 4 -113 -25 -191 -14 -38 -29 -87 -34 -109 -7 -36 -28 -62 -39
-50 -3 3 0 8 6 12 6 4 13 23 17 42 6 35 6 34 -14 -8 -11 -24 -18 -48 -15 -52
3 -5 1 -20 -5 -34 -7 -21 -6 -26 5 -26 19 0 19 -7 -1 -61 -8 -24 -13 -56 -10
-71 3 -16 0 -28 -7 -31 -7 -3 -13 -30 -15 -68 -2 -35 -8 -68 -13 -73 -12 -13
-12 -29 1 -21 15 9 12 -11 -4 -24 -7 -6 -16 -29 -20 -50 -3 -22 -9 -47 -13
-57 -4 -11 -3 -15 5 -11 6 4 13 -1 15 -10 3 -10 3 0 0 23 -4 30 -1 45 12 58
10 10 21 32 25 49 8 31 8 31 9 4 1 -15 -3 -36 -9 -47 -5 -11 -14 -28 -19 -38
-4 -9 -6 -33 -3 -51 4 -28 2 -33 -11 -28 -9 3 -20 1 -24 -6 -9 -14 -14 -71 -5
-63 3 3 11 1 19 -5 14 -12 19 -74 5 -65 -4 2 -6 -11 -4 -30 3 -23 -1 -39 -11
-47 -10 -8 -16 -41 -21 -106 -7 -116 -21 -151 -56 -149 -14 1 -29 5 -35 9 -15
11 -75 -18 -75 -35 0 -20 77 -59 102 -53 17 5 19 1 17 -36 -1 -23 -7 -48 -12
-55 -6 -7 -7 -15 -4 -19 4 -3 12 6 18 20 21 46 38 41 34 -10 -2 -33 -10 -52
-29 -71 -15 -16 -26 -21 -26 -13 0 7 -12 -2 -27 -20 -55 -65 -115 -128 -122
-127 -30 3 -31 -4 -31 -192 l0 -191 377 1 c331 1 381 3 405 18 15 9 28 20 28
25 0 4 4 5 10 2 12 -7 45 9 84 42 27 23 51 25 116 7 8 -2 29 10 47 26 53 50
140 31 181 -40 9 -16 27 -32 39 -35 32 -8 29 -24 -3 -22 -15 1 -29 -4 -31 -10
-4 -10 99 -13 490 -13 442 0 496 2 501 16 9 25 7 46 -4 39 -7 -4 -9 3 -5 22
10 44 27 83 36 83 5 0 6 7 3 15 -4 8 -1 15 5 15 13 0 15 -111 3 -125 -14 -17
-32 -65 -24 -65 17 0 43 62 49 120 5 48 9 60 21 55 11 -4 12 -2 4 7 -17 21
-41 98 -30 98 5 0 6 9 3 20 -4 11 -2 20 4 20 6 0 11 6 11 14 0 8 10 16 23 19
34 9 163 11 176 3 7 -4 18 -3 25 4 8 6 28 15 46 20 24 7 32 6 37 -6 8 -20 36
-17 51 6 7 11 20 20 29 20 24 0 105 91 99 113 -2 9 0 17 6 17 6 0 8 6 5 14 -3
7 -1 18 4 23 17 17 28 71 16 77 -7 3 -2 3 10 0 18 -4 25 0 32 18 11 30 37 52
51 43 5 -3 10 -2 10 4 0 5 14 30 30 54 17 25 30 54 30 65 0 12 7 25 16 30 12
7 16 22 16 56 -1 28 3 44 8 41 6 -4 10 7 10 23 0 17 -6 32 -14 35 -22 9 -12
75 18 110 30 37 32 52 11 61 -13 4 -14 10 -5 26 10 18 8 20 -23 20 -42 0 -106
25 -113 45 -4 8 -10 12 -15 9 -12 -7 -11 -61 1 -69 12 -8 13 -102 1 -109 -5
-4 -5 -22 0 -43 15 -66 10 -143 -10 -143 -4 0 -16 9 -28 19 -16 15 -21 33 -22
78 0 32 -5 74 -11 93 -13 47 -13 93 2 108 6 6 9 15 5 18 -4 4 -19 -6 -34 -21
-24 -24 -79 -55 -98 -55 -3 0 -5 9 -5 20 0 11 -9 28 -20 37 -11 10 -20 27 -20
39 0 30 -54 56 -87 41 -24 -11 -32 -37 -11 -37 24 0 -8 -16 -56 -28 -58 -15
-72 -9 -22 9 20 7 36 16 36 21 0 8 -27 0 -45 -12 -5 -4 -36 -5 -67 -3 -67 6
-77 21 -53 79 15 37 12 74 -6 74 -5 0 -9 -8 -7 -17 2 -13 -4 -18 -21 -18 -18
0 -26 -7 -31 -25 -8 -30 -1 -100 10 -100 21 0 40 -85 40 -180 0 -112 3 -109
-75 -88 -47 13 -53 24 -45 92 1 10 -4 30 -11 43 -9 17 -10 32 -3 51 5 15 7 41
3 57 -4 17 -7 22 -8 13 -1 -21 -20 -23 -44 -6 -22 16 -35 136 -19 164 10 17
11 17 12 2 0 -10 5 -18 10 -18 6 0 10 7 10 16 0 10 6 14 14 11 8 -3 22 1 33 8
10 8 30 15 46 15 16 0 27 5 27 14 0 8 14 31 31 52 41 53 159 233 159 245 0 5
13 38 29 73 30 66 52 86 94 86 28 0 32 -8 106 -186 66 -156 108 -234 129 -235
69 -6 144 -3 149 5 4 5 1 12 -5 14 -14 4 -16 42 -3 42 16 0 70 61 92 102 10
21 24 61 30 90 12 52 34 98 49 98 4 0 13 -28 21 -62 l14 -63 6 50 c4 28 8 86
9 130 l3 80 13 -115 c9 -77 10 -134 5 -171 -5 -30 -6 -71 -2 -90 l7 -34 19 35
c20 37 21 64 11 325 -2 66 -2 109 0 95 3 -14 10 -35 16 -47 7 -14 9 -48 5 -90
-5 -51 -4 -62 4 -43 8 20 12 22 20 10 6 -10 8 -1 4 30 l-5 45 17 -40 c15 -34
19 -83 23 -335 l5 -295 63 -3 62 -3 0 890 0 890 -22 3 c-13 2 -23 10 -23 18 0
9 9 15 23 14 l22 -1 0 359 0 358 -1740 0 -1740 0 0 -55z m3260 -74 c0 -11 -6
-21 -12 -24 -10 -3 -9 -13 4 -40 10 -21 22 -37 28 -37 19 0 10 -56 -11 -76
-17 -15 -20 -27 -17 -65 3 -25 14 -66 25 -90 22 -47 43 -147 36 -165 -3 -8
-20 -10 -48 -7 -37 4 -45 1 -55 -18 -14 -26 -1 -39 41 -39 46 0 67 -49 32 -75
-19 -14 -9 -37 12 -28 11 4 15 -2 15 -20 0 -25 -23 -42 -41 -31 -5 3 -9 -2 -9
-10 0 -9 -4 -16 -10 -16 -5 0 -7 7 -4 15 4 8 1 15 -5 15 -6 0 -11 -7 -11 -16
0 -14 -3 -14 -15 -4 -18 15 -19 7 -5 -23 10 -20 9 -20 -7 2 -49 67 -130 157
-140 154 -12 -4 -38 25 -30 34 4 3 14 0 23 -8 16 -13 16 -12 6 6 -6 12 -32 39
-58 60 -54 45 -84 74 -162 160 -30 31 -75 73 -100 92 -26 20 -62 49 -79 66
-32 30 -32 31 -13 44 26 18 25 54 -1 77 -14 12 -19 24 -15 39 3 12 6 28 6 35
0 9 69 12 310 12 299 0 310 -1 310 -19z m-932 -257 c12 -8 22 -24 22 -34 0
-12 9 -22 25 -26 13 -3 23 -9 22 -13 -1 -4 17 -38 41 -74 23 -37 42 -73 42
-82 0 -8 11 -22 25 -31 15 -9 25 -26 25 -39 0 -15 7 -25 21 -28 12 -3 18 -10
14 -16 -10 -16 5 -34 18 -23 8 6 24 3 47 -9 19 -11 31 -19 27 -19 -5 0 -5 -5
-2 -10 4 -7 11 -8 18 -1 8 6 35 -13 86 -64 63 -62 73 -76 62 -89 -10 -12 -9
-21 4 -50 10 -20 22 -36 29 -36 6 0 28 -30 49 -68 51 -91 96 -160 133 -208 17
-21 40 -60 52 -87 23 -50 53 -162 45 -170 -2 -3 -21 -1 -41 4 -20 5 -73 6
-118 3 l-81 -6 -23 32 c-16 22 -26 28 -33 21 -6 -6 -21 -11 -33 -11 -13 0 -26
-5 -29 -10 -4 -6 -14 -9 -23 -8 -9 2 -16 -2 -15 -9 4 -19 -23 -22 -52 -7 -33
17 -38 17 -29 3 3 -6 1 -22 -7 -35 -12 -24 -13 -24 -33 -5 -20 17 -71 36 -89
33 -4 -1 -10 4 -13 12 -4 11 -15 13 -35 9 -16 -3 -35 0 -44 7 -20 16 -94 16
-130 -1 -19 -8 -71 -14 -138 -15 -65 -2 -114 -7 -122 -14 -8 -7 -34 -13 -57
-14 -31 -2 -44 -7 -46 -19 -2 -10 -8 -15 -13 -11 -5 3 -7 10 -4 15 4 5 -5 9
-19 9 -19 0 -26 5 -26 20 0 25 23 113 31 120 3 3 12 21 20 40 34 84 118 238
147 269 18 18 32 44 32 57 0 18 9 29 35 41 21 10 35 24 35 35 0 10 6 21 14 24
8 3 13 11 10 18 -6 14 12 31 58 56 34 18 52 45 22 33 -10 -3 -15 -2 -13 4 7
18 78 93 88 93 6 0 16 9 24 21 8 11 28 24 43 29 25 7 26 8 7 9 -28 1 -29 9 -5
27 16 13 16 13 0 14 -10 0 -18 7 -18 15 0 8 -6 15 -14 15 -9 0 -12 7 -9 20 3
11 0 20 -6 20 -7 0 -9 9 -5 25 5 19 2 25 -11 25 -14 0 -15 3 -5 15 18 21 -3
44 -37 40 -24 -2 -25 -1 -10 10 23 16 21 25 -4 25 -18 0 -19 2 -9 15 14 17 14
17 -15 33 -11 6 -14 12 -7 12 6 0 12 7 12 15 0 19 10 19 38 -1z m-358 -42 c0
6 3 9 6 6 3 -4 -3 -19 -13 -35 -18 -28 -17 -28 21 5 40 34 62 37 32 3 -16 -18
-16 -20 0 -29 21 -12 14 -24 -53 -85 -28 -27 -54 -44 -57 -38 -4 5 -2 12 4 16
14 8 13 45 -1 45 -6 0 -9 -7 -6 -15 4 -8 2 -17 -3 -20 -6 -4 -10 -1 -10 5 0 6
-5 8 -11 4 -7 -4 -9 0 -5 13 4 13 2 20 -8 20 -9 0 -13 -4 -10 -9 3 -4 0 -16
-6 -25 -10 -16 -11 -16 -6 2 5 17 3 16 -14 -5 -11 -14 -20 -21 -20 -16 0 5 -7
3 -15 -4 -10 -9 -15 -9 -15 -1 0 6 -7 11 -15 11 -8 0 -15 5 -15 10 0 6 4 10 8
10 5 0 17 15 27 34 10 19 24 32 30 29 7 -2 15 3 19 12 3 9 2 13 -4 10 -6 -3
-10 -1 -10 5 0 6 -4 8 -10 5 -5 -3 -10 -3 -10 2 0 4 11 13 24 19 21 10 23 9
18 -4 -3 -10 -1 -13 6 -8 8 4 12 0 13 -11 0 -10 3 -13 6 -5 2 6 10 12 16 12 7
0 18 9 25 20 10 16 17 18 37 10 18 -7 25 -6 25 2z m874 -2604 c-15 -52 -33
-74 -61 -77 -15 -3 -98 -5 -183 -5 -149 -1 -155 0 -155 19 0 17 7 20 50 22
145 6 215 14 264 32 29 11 56 23 59 26 3 3 12 5 19 5 10 0 12 -7 7 -22z"/>
<path d="M3143 746 c-53 -14 -61 -23 -32 -34 62 -24 102 -30 196 -27 80 1 105
5 118 19 10 9 15 19 12 22 -2 3 -50 6 -106 8 -59 2 -107 8 -114 15 -13 13 -17
13 -74 -3z"/>
</g>
</svg>
